<svg width="1340" height="447" viewBox="0 0 1340 447" fill="none" xmlns="http://www.w3.org/2000/svg">
<g filter="url(#filter0_b_201_4127)">
<rect width="1340" height="447" rx="25" fill="#1A2D47" fill-opacity="0.3"/>
</g>
<g clip-path="url(#clip0_201_4127)">
<path d="M1478.21 367.454C1474.33 392.449 1457.23 410.827 1440.45 408.377C1426.89 406.416 1415.27 392.938 1403.98 381.667C1392.52 370.15 1378.81 360.102 1365.73 365.494C1357.34 368.924 1350.57 378.236 1344.76 387.793C1336.2 401.76 1328.46 417.198 1322.01 433.617C1318.46 442.684 1315.07 452.24 1309.9 459.347C1304.74 466.453 1297.16 470.62 1290.71 466.698C1284.09 462.777 1280.69 451.995 1275.69 444.399C1267.62 432.147 1255.36 428.471 1244.23 431.656C1233.09 434.843 1223.26 444.399 1214.7 455.916C1200.5 475.274 1189.37 503.701 1193.4 532.126C1196.79 555.897 1210.34 573.785 1216.79 596.574C1223.41 620.59 1221.32 649.506 1211.31 670.579C1202.11 690.183 1186.94 702.681 1180.17 724.49C1175.97 737.968 1175.64 753.652 1176.29 768.599C1178.07 818.589 1190.49 867.109 1210.82 906.072" stroke="#E03F3F" stroke-opacity="0.3" stroke-width="1.08333" stroke-miterlimit="10"/>
<path d="M1479.98 410.092C1477.4 425.53 1466.75 436.802 1454.33 437.291C1451.74 437.291 1449.16 437.047 1446.59 436.067C1436.25 432.637 1426.57 423.079 1416.89 414.503C1414.63 412.542 1412.37 410.581 1410.27 408.866C1398.65 399.31 1385.1 392.204 1371.87 398.084C1363.48 402.005 1356.38 410.336 1350.25 418.422C1341.54 429.941 1334.27 442.682 1327.81 456.16C1325.24 461.551 1322.81 467.188 1319.75 472.09C1318.62 473.805 1317.33 475.52 1316.04 476.99C1311.04 482.626 1303.93 486.057 1297.8 482.381C1291.51 478.705 1287.95 469.149 1283.12 463.023C1281.98 461.551 1280.7 460.082 1279.24 458.856C1271.82 452.486 1262.47 451.506 1254.07 454.936C1244.23 459.101 1235.35 468.903 1227.61 479.931C1214.86 498.065 1204.37 523.794 1207.11 549.034C1209.53 570.844 1220.67 586.772 1225.52 607.356C1230.67 628.675 1228.09 654.896 1218.73 673.764C1209.53 692.388 1195.49 705.622 1189.37 726.941C1185.66 740.173 1185.34 755.366 1186.14 769.824C1186.46 774.969 1186.78 780.117 1187.26 785.262C1191.63 827.902 1204.05 868.333 1222.12 901.66" stroke="#E03F3F" stroke-opacity="0.3" stroke-width="1.08333" stroke-miterlimit="10"/>
<path d="M1481.75 452.73C1479.83 462.777 1471.1 469.392 1459.81 466.697C1457.56 466.207 1455.13 465.227 1452.71 464.001C1443.03 458.856 1433.51 448.563 1423.5 440.967C1421.24 439.252 1418.99 437.537 1416.73 436.065C1404.79 428.224 1391.4 424.303 1378.32 430.92C1369.93 435.085 1362.51 442.682 1356.05 449.543C1347.34 458.61 1340.4 468.903 1334.11 479.194C1331.52 483.361 1329.11 487.772 1326.04 491.448C1324.92 492.917 1323.78 494.143 1322.49 495.367C1317.65 499.778 1311.04 502.23 1305.22 498.799C1299.25 495.367 1295.54 487.281 1290.71 482.381C1289.57 481.155 1288.28 480.174 1287 479.194C1279.89 474.294 1271.66 474.783 1264.24 479.194C1255.53 484.341 1247.94 494.387 1240.68 505.169C1229.38 522.079 1219.55 544.868 1220.99 567.412C1222.29 586.527 1231.16 600.739 1234.55 618.873C1238.09 637.742 1235.2 660.776 1226.32 677.684C1217.12 694.594 1204.21 708.315 1198.73 729.39C1195.34 742.377 1195.17 757.081 1196.14 771.048C1196.46 775.95 1196.95 780.851 1197.43 785.751C1202.28 826.919 1215.35 865.148 1233.09 897.249" stroke="#E03F3F" stroke-opacity="0.3" stroke-width="1.08333" stroke-miterlimit="10"/>
<path d="M1432.21 9.68139C1429.96 29.0403 1425.6 47.664 1418.5 63.8373C1411.41 80.0105 1401.24 93.4883 1389.14 100.595C1377.67 106.966 1364.93 107.946 1352.82 105.006C1342.82 102.555 1333.14 97.6541 1324.59 89.5675C1319.59 84.9116 1315.07 79.0304 1309.9 74.3744C1309.1 73.6393 1308.3 72.9041 1307.65 72.4141C1289.89 57.466 1271.33 57.221 1255.68 37.372C1244.39 23.1591 1242.29 -1.1008 1239.55 -22.175C1236.8 -43.2494 1229.71 -67.9993 1215.18 -71.675C1209.05 -73.3904 1202.93 -70.6948 1196.79 -69.7147C1168.87 -65.5488 1145.15 -99.3657 1128.37 -132.447C1124.18 -140.534 1119.5 -148.375 1113.52 -154.747C1107.72 -160.873 1100.78 -164.794 1094.81 -170.185C1085.77 -178.272 1078.83 -189.789 1074.15 -203.512C1071.89 -210.373 1070.12 -217.725 1067.54 -224.831C1064.31 -233.652 1060.44 -240.759 1057.05 -248.356C1052.37 -258.893 1048.66 -270.901 1045.75 -283.398C1040.43 -305.943 1036.88 -330.692 1036.72 -354.952C1036.55 -406.413 1050.43 -454.687 1060.11 -504.433C1064.15 -525.506 1067.54 -546.827 1068.99 -568.635C1073.02 -630.632 1061.56 -692.384 1049.95 -752.177" stroke="#E03F3F" stroke-opacity="0.3" stroke-width="1.08333" stroke-miterlimit="10"/>
<path d="M330.585 813.687C343.495 796.044 353.661 773.254 360.922 749.24C362.375 744.34 363.826 739.192 365.117 734.047C370.12 714.689 373.671 693.614 373.509 672.784C373.509 669.108 373.348 665.188 373.024 661.513C372.056 648.524 369.313 636.027 365.279 624.264C364.956 623.284 364.472 622.304 364.149 621.079C356.242 600.25 344.463 582.116 336.556 563.002C331.554 551.241 328.811 539.722 323.971 530.657C315.74 515.218 303.315 505.416 289.438 501.006C284.597 499.534 279.434 499.045 274.269 499.534C265.234 500.269 255.068 503.456 246.516 496.349C237.156 488.507 233.929 470.129 235.058 454.445C236.188 439.008 240.383 424.794 242.319 409.357C242.642 406.905 242.804 404.701 242.965 402.249C243.934 388.771 242.804 374.315 238.286 362.796C236.027 357.161 233.122 352.26 229.572 348.584C216.824 335.597 198.913 339.762 183.422 338.782C176.16 338.293 169.221 336.577 163.413 330.695C160.508 327.754 158.087 324.08 155.99 319.913C151.311 310.111 149.212 297.368 148.244 285.117C147.114 271.884 147.114 258.65 145.017 246.399C144.372 242.477 143.565 238.801 142.436 235.127C133.561 204.005 108.388 189.792 83.6988 179.745C68.8533 173.619 55.2987 166.267 41.2601 160.141C30.2873 155.485 18.9918 151.564 7.53489 146.908C-4.72879 142.007 -17.4765 136.126 -29.2561 128.775C-42.4879 120.443 -54.7516 109.906 -62.4971 92.0175" stroke="#E03F3F" stroke-opacity="0.3" stroke-width="1.08333" stroke-miterlimit="10"/>
<path d="M411.591 875.441C433.052 851.672 446.93 814.424 454.513 775.706C456.128 767.619 457.418 759.533 458.547 751.446C462.744 720.325 464.034 688.224 463.873 656.121C463.873 650.487 463.873 644.604 463.55 638.968C462.904 618.875 460.968 599.026 455.32 581.137C454.837 579.422 454.352 577.951 453.707 576.235C442.411 544.134 420.949 518.649 416.271 484.343C413.365 463.023 418.207 442.93 419.498 423.08C420.949 402.005 418.045 378.726 406.911 362.798C403.039 357.161 398.197 352.996 393.034 349.81C383.513 343.929 372.54 340.743 363.342 331.432C353.661 321.63 347.851 305.457 344.624 289.283C341.397 273.354 340.429 256.937 338.976 240.029C338.816 237.333 338.493 234.882 338.331 232.186C336.879 217.728 334.781 202.535 328.973 190.772C326.067 184.892 322.517 180.481 318.322 177.051C303.961 165.288 284.597 168.964 267.977 172.149C260.231 173.619 252.486 174.845 245.385 172.64C241.674 171.66 238.286 169.699 234.897 167.003C227.152 160.632 221.826 149.605 216.986 138.333C211.821 126.325 206.981 113.828 200.204 105.251C197.945 102.555 195.685 100.105 193.265 98.1446C172.772 81.7261 143.888 95.449 117.424 83.4415C99.1896 75.1099 86.2805 53.7905 72.0805 36.637C60.9464 23.4045 48.3599 12.1321 34.9667 2.82021C20.6053 -6.98177 4.95294 -14.8233 -10.5381 -19.9694C-27.8039 -25.8505 -45.7154 -29.0362 -58.9473 -46.1897" stroke="#E03F3F" stroke-opacity="0.3" stroke-width="1.08333" stroke-miterlimit="10"/>
<path d="M353.662 -683.074C346.078 -650.973 341.076 -611.765 354.791 -584.319C359.471 -575.252 365.604 -568.391 372.381 -563C373.671 -562.02 374.962 -561.039 376.253 -560.059C395.294 -545.846 416.272 -537.514 437.41 -535.555C444.833 -534.819 452.417 -534.819 459.517 -531.634C480.817 -522.076 492.112 -481.644 484.367 -453.952C481.301 -442.926 475.976 -434.103 471.135 -424.792C468.876 -420.625 466.778 -416.215 464.842 -411.56C457.258 -394.406 451.287 -374.312 450.158 -352.013C448.867 -324.322 457.258 -299.571 463.39 -274.087C471.135 -241.495 468.714 -204.983 473.394 -169.45C478.236 -133.183 485.819 -99.3664 488.724 -62.854C490.338 -41.2896 493.888 -19.9703 490.821 0.123727C489.531 8.70045 486.464 16.0519 482.592 22.9133C474.685 37.1262 462.421 47.9084 449.028 44.7226C420.467 38.3514 392.712 25.1189 367.378 9.92571C358.503 4.77968 349.951 -0.856518 341.559 -6.24761C319.614 -20.2155 298.96 -39.0842 275.4 -55.2575C252.81 -70.6956 229.574 -86.6237 206.337 -99.3664C196.493 -104.758 186.489 -109.658 176.645 -113.824C163.575 -119.46 149.052 -120.931 136.628 -131.958C116.78 -149.356 108.711 -177.291 89.9932 -196.406C74.341 -212.334 55.9453 -219.196 44.3271 -244.926C42.8749 -248.112 41.584 -251.297 40.4545 -254.727C33.5158 -274.577 30.7726 -297.611 28.8362 -319.175C27.5454 -333.879 26.4157 -349.806 20.1225 -361.569C14.6362 -371.862 6.56798 -377.253 -0.209306 -385.339C-6.9866 -393.181 -12.7956 -406.904 -9.5684 -419.156" stroke="#E03F3F" stroke-opacity="0.3" stroke-width="1.08333" stroke-miterlimit="10"/>
<path d="M949.094 -602.697C965.23 -579.908 966.36 -540.945 960.873 -508.109C955.387 -475.271 944.737 -444.64 941.026 -411.804C939.251 -395.876 938.283 -377.497 935.056 -362.058C932.151 -347.846 927.31 -336.083 918.274 -330.448C912.303 -326.772 905.364 -326.772 899.394 -322.851C883.257 -311.579 883.257 -280.213 881.321 -252.277C880.998 -248.601 880.837 -244.926 880.353 -241.25C877.126 -210.618 865.023 -182.683 862.926 -151.806C860.99 -124.361 865.991 -97.8957 870.187 -71.1853C871.962 -60.1581 873.737 -48.6407 874.705 -37.1236C875.673 -25.116 875.673 -13.5987 874.382 -2.57149C873.575 4.53494 872.284 11.3963 870.833 17.7675C864.7 46.9283 853.566 74.129 842.27 102.064C835.816 117.993 829.2 133.921 823.714 151.564C819.357 165.532 815.807 179.99 813.709 195.183C812.096 205.72 812.096 216.502 812.58 227.04C813.064 238.803 814.355 250.564 814.839 262.326C815.162 272.128 815.162 280.706 813.387 289.527C812.418 294.184 810.644 297.859 809.352 302.025C808.223 305.701 807.255 309.622 807.416 314.767C808.223 331.186 812.741 347.114 817.26 362.307C824.843 388.037 832.266 413.768 839.689 439.497C843.24 451.995 846.95 464.492 850.501 476.99C856.148 496.349 861.635 515.708 867.283 535.067C870.187 545.113 873.252 555.895 872.769 566.677C872.446 574.275 870.671 581.136 868.412 587.998C866.476 594.124 864.377 600.004 862.764 606.376C862.603 606.867 862.441 607.602 862.441 608.091C860.99 614.219 860.182 620.588 859.376 626.716C857.923 638.478 857.116 650.239 853.405 660.041C846.627 678.175 831.782 686.507 817.583 687.733C803.543 688.714 789.343 685.281 775.143 690.429C773.691 690.918 772.078 691.653 770.625 692.388C767.236 694.348 764.171 696.8 761.75 699.496C760.137 701.211 758.684 702.926 757.393 704.887C754.812 708.561 752.068 712.728 749.486 717.384C740.773 733.066 733.995 752.916 728.187 775.215C719.472 808.787 712.373 846.525 709.468 882.056" stroke="#E03F3F" stroke-opacity="0.3" stroke-width="1.08333" stroke-miterlimit="10"/>
<path d="M895.523 -594.61C907.625 -572.311 908.593 -538.738 904.075 -509.824C899.395 -480.908 890.197 -453.461 884.711 -425.771C881.968 -412.293 879.548 -397.591 875.514 -385.092C871.964 -373.821 866.961 -364.508 859.215 -359.117C853.89 -355.441 848.081 -354.706 842.918 -350.787C828.718 -340.248 825.652 -316.234 822.102 -292.465C821.617 -289.278 821.134 -286.094 820.649 -283.152C816.454 -256.686 807.902 -231.202 805.966 -203.756C804.029 -174.841 806.611 -146.17 808.87 -117.499C809.677 -106.227 811.613 -93.4841 812.259 -80.9865C812.904 -67.999 812.259 -55.5015 808.87 -45.4545C806.611 -38.8382 803.707 -34.4273 800.802 -30.0164C789.022 -11.3926 771.272 4.53564 755.297 25.8549C745.938 38.1074 737.225 52.5652 730.931 71.434C726.091 86.1371 723.185 102.065 722.056 118.238C721.249 129.511 721.895 141.028 723.347 152.055C724.8 164.308 727.059 176.314 728.995 188.077C730.447 197.879 731.9 206.702 731.9 215.523C731.9 220.424 731.415 224.345 731.254 228.756C731.092 232.677 731.092 236.842 731.9 241.988C734.643 258.652 739.806 275.069 744.809 290.999C753.199 317.954 761.268 345.399 769.336 372.6C773.209 385.832 777.082 399.064 781.115 412.298C787.247 432.882 793.218 453.221 799.349 473.805C802.577 484.587 805.643 495.615 806.611 506.642C807.256 514.484 806.934 521.835 806.288 529.187C805.805 535.802 805.158 542.419 804.029 549.526C803.867 550.015 803.867 550.752 803.707 551.241C802.577 557.858 800.963 564.473 799.349 570.599C796.122 582.853 792.895 593.144 787.731 600.987C778.211 615.445 762.559 619.364 747.39 615.688C728.672 611.032 710.277 601.476 690.752 612.012C688.815 612.993 686.879 614.464 685.104 616.179C680.909 620.345 678.004 625.981 677.359 631.616C676.874 635.292 677.359 637.988 677.52 641.42C677.681 647.546 677.036 654.897 676.229 662.493C673.97 688.468 673.002 717.874 669.29 749.241C663.481 797.27 650.733 846.279 640.406 892.595" stroke="#E03F3F" stroke-opacity="0.3" stroke-width="1.08333" stroke-miterlimit="10"/>
<path d="M806.126 -581.134C811.773 -559.813 812.258 -535.31 809.03 -512.519C805.803 -489.729 799.026 -467.921 790.473 -448.807C786.116 -439.25 781.276 -430.427 775.628 -422.832C770.948 -416.46 765.785 -411.069 759.976 -406.413C755.941 -403.228 751.907 -400.532 747.873 -397.102C737.062 -388.035 728.509 -375.781 722.539 -359.608C721.732 -357.404 720.925 -355.197 720.28 -352.747C714.309 -333.388 711.727 -311.579 710.437 -290.015C708.5 -258.158 707.21 -226.302 705.919 -194.691C705.434 -183.417 707.21 -168.47 707.37 -154.012C707.532 -139.309 705.919 -125.587 698.98 -117.01C694.623 -111.619 688.814 -110.638 683.327 -109.903C662.996 -107.453 633.466 -111.864 609.261 -101.082C595.061 -94.9553 582.798 -83.438 575.214 -61.8737C569.566 -45.9456 567.791 -27.8117 568.436 -9.67811C568.921 2.81942 570.857 15.3169 573.438 26.8342C576.505 39.8219 580.377 52.3193 584.734 64.3268C588.123 73.8837 591.673 83.1956 595.062 92.5074C596.836 97.4084 598.45 102.309 600.225 107.21C601.839 111.621 603.29 116.277 605.066 120.933C611.036 137.842 617.33 155.24 623.139 172.638C632.982 201.8 642.018 231.695 651.216 261.346C655.573 275.804 660.091 290.262 664.448 304.475C671.225 326.774 678.164 349.319 684.942 371.62C688.491 383.38 692.041 395.143 695.268 406.662C697.527 414.992 699.625 423.079 701.562 431.165C703.337 438.517 705.273 446.358 704.789 454.445C704.789 455.181 704.628 455.916 704.628 456.406C703.821 463.757 701.239 470.618 698.173 476.5C691.718 489.243 684.78 497.084 677.357 501.741C662.995 510.071 646.375 505.416 629.594 495.369C603.29 479.441 577.473 461.307 549.234 481.157C546.491 483.116 543.909 485.811 541.811 489.243C536.486 497.084 533.582 508.356 535.84 518.158C537.293 524.775 540.682 529.431 543.425 535.068C548.427 545.359 551.009 558.102 553.43 570.599C561.982 613.973 570.857 658.571 570.534 705.131C570.05 777.421 547.298 845.299 524.706 909.012" stroke="#E03F3F" stroke-opacity="0.3" stroke-width="1.08333" stroke-miterlimit="10"/>
<path d="M659.446 398.819C647.343 339.027 615.071 293.449 599.419 235.862C595.062 219.689 591.995 203.024 588.446 186.362C584.25 166.758 579.41 147.154 573.923 128.285C571.826 120.933 569.082 113.092 563.919 110.886C558.594 108.681 553.108 114.072 550.041 120.933C546.975 127.795 545.524 136.127 543.103 143.478C535.841 166.023 518.898 180.481 502.438 178.03C489.206 176.069 476.459 166.268 462.904 167.003C454.514 167.493 449.996 175.825 452.416 188.568C453.546 194.448 455.965 199.594 458.548 204.496C469.359 225.815 482.752 245.174 490.014 269.924C498.081 297.368 495.177 327.019 495.177 356.181C492.918 369.904 490.659 384.606 494.209 397.595C498.728 414.012 511.153 421.609 522.771 423.079C534.389 424.305 546.007 420.874 557.626 422.835C579.893 426.265 599.257 448.319 621.203 454.201C649.119 461.797 668.644 444.643 659.446 398.819Z" stroke="#E03F3F" stroke-opacity="0.3" stroke-width="1.08333" stroke-miterlimit="10"/>
<path d="M609.746 378.97C610.392 389.262 608.778 396.614 604.744 400.78C600.549 405.19 594.416 406.171 587.477 403.964C576.343 400.29 566.5 389.017 556.335 384.117C550.687 381.421 545.361 379.95 540.036 376.765C534.712 373.579 529.064 367.944 526.321 359.12C525.998 357.896 525.675 356.67 525.353 355.445C524.224 349.319 524.223 343.193 524.223 337.312C522.286 322.119 521.318 306.925 516.638 292.223C514.541 285.851 512.121 279.971 509.701 274.089C506.957 267.472 504.376 260.857 502.117 253.994C501.147 251.055 500.179 248.114 499.857 244.683C499.534 242.723 499.534 241.007 499.696 239.292C500.179 235.125 501.794 232.186 504.698 231.206C508.571 229.734 512.766 230.715 516.8 231.695C519.544 232.43 522.286 232.921 525.03 232.921C533.582 233.166 542.296 226.795 547.298 216.993C548.911 213.807 550.041 209.887 551.977 207.191C554.882 203.27 558.916 201.309 562.466 202.535C566.178 203.759 568.759 207.926 570.535 212.826C572.148 217.482 573.6 222.874 574.569 228.756C576.021 237.577 577.151 245.908 578.28 254.24C579.893 265.513 581.669 276.784 585.218 289.282C594.255 319.913 607.971 348.584 609.746 378.97Z" stroke="#E03F3F" stroke-opacity="0.3" stroke-width="1.08333" stroke-miterlimit="10"/>
<path d="M1091.74 635.536C1076.73 662.982 1059.95 688.957 1039.62 707.091C1022.68 722.284 1002.99 731.595 983.626 730.126C979.754 729.88 975.881 729.145 972.17 727.919C949.256 720.569 928.763 694.103 923.277 660.041C916.661 618.382 931.022 579.42 939.897 539.722C944.899 517.912 947.481 494.387 947.965 471.108C948.288 454.2 947.32 437.291 945.222 420.873C938.768 372.109 917.144 333.146 914.402 281.685C912.788 252.034 916.499 182.195 923.76 106.965C928.925 53.7889 935.54 -1.83717 943.769 -47.9064C953.774 -103.043 965.554 -143.966 977.978 -146.171C990.888 -148.377 999.602 -127.793 1005.41 -110.884C1013 -89.0748 1018.64 -64.8149 1026.87 -42.0253C1029.45 -34.9189 1032.2 -28.0574 1035.26 -21.4411C1050.43 10.4153 1072.86 33.2049 1095.29 53.0539C1109.65 65.7965 1124.82 76.0885 1140.63 82.7049C1145.15 84.6653 1149.83 86.3807 1154.51 87.6058C1166.29 90.7916 1179.2 92.0168 1187.91 104.024C1194.37 112.846 1196.46 126.324 1200.17 137.841C1207.93 162.591 1222.76 182.195 1239.06 189.792C1247.78 193.957 1256.5 194.938 1264.88 198.614C1279.24 204.74 1299.25 220.913 1308.45 239.291C1317.01 256.69 1310.07 292.712 1304.25 312.07C1303.13 315.746 1302 319.422 1299.9 322.118C1294.57 328.735 1286.51 325.794 1279.41 325.548C1263.76 325.059 1252.94 339.026 1240.2 349.808C1237.77 351.769 1235.2 353.73 1232.61 355.69C1220.67 364.022 1208.08 370.638 1196.95 381.911C1177.75 401.269 1162.58 427.979 1149.83 456.65C1143.37 471.353 1137.57 486.546 1132.24 501.739C1129.01 511.052 1126.27 520.608 1123.69 530.41C1114.01 567.167 1107.72 606.13 1091.74 635.536Z" stroke="#E03F3F" stroke-opacity="0.3" stroke-width="1.08333" stroke-miterlimit="10"/>
<path d="M1154.99 276.541C1142.57 277.275 1129.83 273.845 1117.88 278.991C1102.07 285.851 1090.61 306.681 1080.77 326.776C1075.6 337.067 1070.6 347.605 1067.7 359.611C1063.66 376.276 1064.15 394.654 1062.85 412.298C1061.56 429.941 1057.53 448.81 1047.69 458.366C1041.39 464.492 1033.33 465.964 1026.39 462.042C1009.12 452.731 1004.44 418.179 1007.99 390.734C1011.54 363.287 1020.25 337.067 1019.13 309.131C1018.32 289.038 1012.19 270.415 1007.83 251.3C1003.8 234.147 1001.21 216.258 999.923 198.124C998.954 184.892 998.954 170.679 1003.96 159.897C1012.51 141.273 1031.23 142.253 1044.62 151.81C1058.01 161.367 1069.47 177.54 1083.67 184.401C1097.39 191.018 1112.07 188.322 1126.27 186.116C1140.48 183.912 1155.48 182.686 1168.55 191.507C1203.4 215.523 1189.69 274.334 1154.99 276.541Z" stroke="#E03F3F" stroke-opacity="0.3" stroke-width="1.08333" stroke-miterlimit="10"/>
<path d="M5.1141 -275.557C9.30956 -223.605 28.1892 -174.841 55.9438 -143.474C64.8189 -133.427 74.6621 -125.341 83.2144 -114.804C101.933 -92.259 115.004 -59.1773 135.981 -41.7789C171.481 -12.1279 216.178 -35.6526 255.552 -21.4397C274.592 -14.5784 291.697 1.1048 307.995 17.7682C314.933 24.8746 322.356 33.6964 322.841 46.194C323.002 48.6443 322.679 51.0949 321.711 53.0552C320.097 55.7508 317.354 55.7508 314.934 55.0158C300.572 51.0949 288.147 38.5973 275.4 28.0603C254.906 11.1519 232.476 -1.59074 209.239 -3.06104C182.454 -4.77638 153.891 7.72111 130.01 -10.6576C103.385 -31.2418 93.0575 -83.1922 67.7233 -107.207C57.5574 -116.764 45.6164 -121.42 34.6437 -128.281C-12.4747 -157.197 -44.586 -234.387 -42.0043 -311.334" stroke="#E03F3F" stroke-opacity="0.3" stroke-width="1.08333" stroke-miterlimit="10"/>
<path d="M258.134 818.1C269.913 796.781 278.304 760.758 281.209 733.557C283.952 707.828 281.047 679.401 269.268 660.288C258.94 643.379 243.772 636.272 229.734 628.186C209.24 616.179 188.909 600.006 175.193 573.785C166.317 556.632 160.67 534.578 160.993 512.523C161.315 493.165 177.29 474.54 168.254 455.427C164.381 447.34 158.087 442.93 151.633 440.723C145.34 438.273 138.724 437.782 132.431 435.087C91.9286 418.913 112.584 358.387 92.8967 320.404C85.9581 306.926 73.8557 303.496 62.7216 301.29C41.2602 297.37 19.6375 295.409 -1.98535 295.899" stroke="#E03F3F" stroke-opacity="0.3" stroke-width="1.08333" stroke-miterlimit="10"/>
<path d="M915.371 478.216C911.982 450.034 902.3 424.794 893.909 399.064C872.931 335.106 860.023 259.631 875.675 192.242C876.643 188.323 877.611 184.156 877.288 179.99C876.805 175.825 874.384 171.658 871.64 172.393C870.189 172.884 869.059 174.354 868.09 175.825C859.7 189.303 857.279 208.907 857.602 227.284C857.925 245.664 860.506 264.042 860.668 282.421C860.829 317.463 851.793 352.751 857.279 386.813C862.927 420.874 882.291 446.358 889.067 479.931C891.65 492.674 892.779 551.485 904.236 551.73C919.243 551.976 916.822 490.467 915.371 478.216Z" stroke="#E03F3F" stroke-opacity="0.3" stroke-width="1.08333" stroke-miterlimit="10"/>
<path d="M1364.28 350.79C1355.08 350.544 1346.22 357.407 1339.43 366.963C1332.66 376.52 1327.81 388.773 1323.3 401.025C1320.56 408.622 1317.81 416.709 1313.62 422.835C1309.42 428.961 1303.62 433.126 1297.97 431.167C1292.8 429.452 1289.09 423.324 1285.06 418.179C1281.03 413.033 1275.86 408.622 1270.86 411.072C1268.92 412.053 1267.15 414.257 1264.88 414.503C1259.88 414.994 1257.3 404.212 1259.73 397.595C1262.14 390.978 1267.3 388.038 1272.15 385.343C1291.83 374.804 1311.52 364.513 1331.21 353.977C1337.18 350.79 1343.15 347.605 1348.31 342.458C1361.54 328.736 1367.19 303.74 1371.06 279.971" stroke="#E03F3F" stroke-opacity="0.3" stroke-width="1.08333" stroke-miterlimit="10"/>
<path d="M1309.42 389.754C1302.65 404.455 1291.35 407.397 1283.28 393.429C1291.83 382.891 1317.98 380.687 1322.66 368.189C1319.42 376.52 1313.13 381.667 1309.42 389.754Z" stroke="#E03F3F" stroke-opacity="0.3" stroke-width="1.08333" stroke-miterlimit="10"/>
<path d="M1188.55 38.1057C1180.97 35.4102 1173.07 38.5959 1165.16 39.0859C1141.6 40.5563 1120.3 17.5216 1104.81 -9.43383C1089.32 -36.3892 1077.22 -68.0005 1060.11 -92.5055C1052.53 -103.288 1042.85 -113.335 1032.52 -111.619C1032.84 -95.6912 1040.43 -81.9684 1048.98 -72.4114C1057.53 -63.0996 1067.37 -56.7284 1075.76 -46.6812C1087.87 -32.2233 1095.77 -11.3942 1106.42 5.75927C1121.1 29.5291 1141.12 45.7024 1162.25 50.8483C1170 52.8087 1177.75 53.2988 1185.49 55.9944C1190.34 57.7097 1195.02 60.4053 1199.53 63.1008C1203.24 52.5637 1195.17 40.8013 1188.55 38.1057Z" stroke="#E03F3F" stroke-opacity="0.3" stroke-width="1.08333" stroke-miterlimit="10"/>
<path d="M1078.02 263.063C1074.8 270.415 1071.25 279.725 1065.44 279.971C1059.31 280.216 1055.43 269.189 1056.24 259.878C1056.4 257.182 1056.89 254.731 1056.72 252.035C1056.24 247.135 1053.5 243.705 1051.56 239.783C1049.46 235.862 1048.17 229.981 1050.27 226.306C1051.08 224.836 1052.37 224.099 1053.66 223.61C1061.4 219.934 1069.96 219.934 1077.7 223.364C1080.61 224.59 1083.51 226.551 1086.42 227.04C1094.65 228.756 1101.75 221.895 1109.33 219.689C1114.65 218.219 1126.12 219.445 1117.72 229.981C1113.85 234.882 1101.75 234.392 1096.42 238.557C1089.16 243.949 1082.7 252.526 1078.02 263.063Z" stroke="#E03F3F" stroke-opacity="0.3" stroke-width="1.08333" stroke-miterlimit="10"/>
</g>
<defs>
<filter id="filter0_b_201_4127" x="-40" y="-40" width="1420" height="527" filterUnits="userSpaceOnUse" color-interpolation-filters="sRGB">
<feFlood flood-opacity="0" result="BackgroundImageFix"/>
<feGaussianBlur in="BackgroundImageFix" stdDeviation="20"/>
<feComposite in2="SourceAlpha" operator="in" result="effect1_backgroundBlur_201_4127"/>
<feBlend mode="normal" in="SourceGraphic" in2="effect1_backgroundBlur_201_4127" result="shape"/>
</filter>
<clipPath id="clip0_201_4127">
<rect width="1339" height="447" fill="white" transform="translate(1)"/>
</clipPath>
</defs>
</svg>
