<svg width="519" height="452" viewBox="0 0 519 452" fill="none" xmlns="http://www.w3.org/2000/svg">
<path d="M487.511 446.147C487.511 449.103 380.023 451.503 247.437 451.503C114.852 451.503 7.36377 449.103 7.36377 446.147C7.36377 443.191 114.852 440.792 247.437 440.792C380.023 440.792 487.511 443.191 487.511 446.147Z" fill="#E5E9ED"/>
<path d="M94.1761 150.602C94.1761 148.241 93.9614 145.916 93.5572 143.668C93.3045 142.279 93.9614 140.888 95.1865 140.194L100.618 137.061C102.235 136.127 102.778 134.068 101.856 132.464L94.2265 119.239C93.2919 117.622 91.2331 117.079 89.6289 118.001L84.1978 121.133C82.9725 121.841 81.4442 121.714 80.3706 120.805C76.8466 117.824 72.7921 115.462 68.3713 113.87C67.0451 113.391 66.1862 112.128 66.1862 110.726V104.46C66.1862 102.604 64.6832 101.088 62.8137 101.088H47.5557C45.699 101.088 44.1833 102.591 44.1833 104.46V110.726C44.1833 112.128 43.3118 113.404 41.9981 113.87C37.5774 115.462 33.5229 117.824 29.9989 120.805C28.9253 121.714 27.3969 121.841 26.1718 121.133L20.7405 118.001C19.1238 117.066 17.065 117.622 16.1429 119.239L8.51391 132.464C7.57922 134.08 8.13497 136.14 9.75172 137.061L15.1829 140.194C16.4082 140.901 17.065 142.291 16.8124 143.668C16.4082 145.916 16.1935 148.228 16.1935 150.602C16.1935 152.977 16.4082 155.289 16.8124 157.537C17.065 158.926 16.4082 160.315 15.1829 161.011L9.75172 164.143C8.13497 165.078 7.59186 167.136 8.51391 168.74L16.1429 181.965C17.0776 183.582 19.1365 184.125 20.7405 183.204L26.1718 180.071C27.3969 179.364 28.9253 179.49 29.9989 180.4C33.5229 183.381 37.5774 185.742 41.9981 187.334C43.3244 187.814 44.1833 189.077 44.1833 190.479V196.744C44.1833 198.601 45.6864 200.116 47.5557 200.116H62.8137C64.6705 200.116 66.1862 198.614 66.1862 196.744V190.479C66.1862 189.077 67.0577 187.801 68.3713 187.334C72.7921 185.742 76.8466 183.381 80.3706 180.4C81.4442 179.49 82.9725 179.364 84.1978 180.071L89.6289 183.204C91.2457 184.138 93.3045 183.582 94.2265 181.965L101.856 168.74C102.79 167.123 102.235 165.065 100.618 164.143L95.1865 161.011C93.9614 160.303 93.3045 158.914 93.5572 157.537C93.9614 155.289 94.1761 152.977 94.1761 150.602ZM57.8877 171.456C44.1328 173.187 32.5629 161.617 34.2934 147.861C35.4807 138.489 43.0465 130.923 52.4186 129.735C66.1736 128.005 77.7434 139.576 76.013 153.33C74.8257 162.703 67.2598 170.269 57.8877 171.456Z" fill="white" stroke="#BEC8D2" stroke-width="1.13932" stroke-miterlimit="10"/>
<path d="M149.51 80.9786C150.95 78.5534 152.15 76.0525 153.11 73.4883C153.704 71.9095 155.219 70.8989 156.899 70.9242L164.376 71.0252C166.6 71.0505 168.418 69.2821 168.456 67.059L168.709 48.8447C168.734 46.6217 166.966 44.8028 164.743 44.7649L157.253 44.6639C155.573 44.6386 154.07 43.5775 153.526 41.9861C151.734 36.7819 149.031 31.8811 145.455 27.5359C144.394 26.2475 144.268 24.416 145.127 22.976L148.954 16.5468C150.092 14.6394 149.459 12.1763 147.552 11.0395L131.903 1.71766C129.995 0.580848 127.532 1.21241 126.396 3.11972L122.569 9.54903C121.71 10.989 120.042 11.7594 118.4 11.4437C112.894 10.37 107.285 10.3195 101.854 11.229C100.199 11.5069 98.5448 10.6984 97.7364 9.23324L94.0735 2.69026C92.9873 0.757685 90.5369 0.0629671 88.6044 1.14925L72.7021 10.0416C70.7697 11.1279 70.075 13.5784 71.1612 15.5109L74.8115 22.0413C75.6325 23.5065 75.4557 25.3381 74.3568 26.6011C72.5632 28.6601 70.9339 30.8958 69.4813 33.3337C68.0414 35.7588 66.8414 38.2598 65.8815 40.824C65.2879 42.4029 63.7722 43.4133 62.0923 43.388L54.6148 43.2871C52.3918 43.2618 50.573 45.0301 50.5351 47.2532L50.2825 65.4675C50.2572 67.6906 52.0255 69.5095 54.2486 69.5474L61.7387 69.6484C63.4185 69.6737 64.9215 70.7347 65.4648 72.3262C67.2583 77.5303 69.9613 82.4313 73.5358 86.7763C74.5968 88.0647 74.7231 89.8963 73.8642 91.3362L70.0371 97.7655C68.9003 99.6729 69.5318 102.136 71.4391 103.273L87.0886 112.594C88.9959 113.732 91.4589 113.1 92.5957 111.192L96.4228 104.763C97.2817 103.323 98.949 102.553 100.591 102.869C106.098 103.942 111.707 103.993 117.138 103.083C118.792 102.805 120.447 103.614 121.255 105.079L124.918 111.622C126.004 113.555 128.454 114.25 130.387 113.163L146.289 104.271C148.222 103.184 148.916 100.734 147.83 98.8013L144.18 92.271C143.359 90.8058 143.535 88.9742 144.634 87.7111C146.428 85.6522 148.058 83.4164 149.51 80.9786ZM99.5679 80.2082C84.3983 73.5894 79.6112 54.6551 89.779 41.6071C96.7134 32.7147 109.104 29.5822 119.436 34.0916C134.606 40.7102 139.393 59.6445 129.225 72.6925C122.291 81.5849 109.9 84.7174 99.5679 80.2082Z" fill="white" stroke="#BEC8D2" stroke-width="1.13932" stroke-miterlimit="10"/>
<path d="M493.054 118.039C493.054 114.805 492.764 111.634 492.208 108.565C491.868 106.671 492.764 104.776 494.431 103.816L501.846 99.5337C504.044 98.258 504.801 95.4411 503.526 93.2433L493.092 75.168C491.816 72.9702 489 72.2123 486.802 73.4881L479.375 77.7827C477.708 78.7427 475.611 78.5785 474.146 77.328C469.333 73.2481 463.789 70.0145 457.738 67.8419C455.933 67.1978 454.745 65.4546 454.745 63.5347V54.9707C454.745 52.4318 452.687 50.3604 450.135 50.3604H429.269C426.73 50.3604 424.659 52.4192 424.659 54.9707V63.5347C424.659 65.4546 423.472 67.1851 421.665 67.8419C415.615 70.0145 410.07 73.2481 405.257 77.328C403.793 78.5658 401.696 78.7427 400.029 77.7701L392.601 73.4755C390.404 72.1998 387.587 72.9576 386.311 75.1554L375.879 93.2308C374.603 95.4286 375.361 98.2453 377.559 99.521L384.972 103.803C386.639 104.763 387.537 106.658 387.195 108.553C386.639 111.622 386.349 114.793 386.349 118.026C386.349 121.26 386.639 124.43 387.195 127.5C387.537 129.394 386.639 131.289 384.972 132.248L377.559 136.531C375.361 137.807 374.603 140.623 375.879 142.821L386.311 160.896C387.587 163.094 390.404 163.852 392.601 162.576L400.029 158.282C401.696 157.322 403.793 157.486 405.257 158.736C410.07 162.816 415.615 166.05 421.665 168.222C423.472 168.867 424.659 170.61 424.659 172.529V181.094C424.659 183.632 426.718 185.704 429.269 185.704H450.135C452.674 185.704 454.745 183.645 454.745 181.094V172.529C454.745 170.61 455.933 168.879 457.738 168.222C463.789 166.05 469.333 162.816 474.146 158.736C475.611 157.499 477.708 157.322 479.375 158.282L486.802 162.576C489 163.852 491.816 163.094 493.092 160.896L503.526 142.821C504.801 140.623 504.044 137.807 501.846 136.531L494.431 132.248C492.764 131.289 491.868 129.394 492.208 127.5C492.764 124.43 493.054 121.26 493.054 118.026V118.039ZM443.453 146.56C424.646 148.935 408.832 133.107 411.207 114.312C412.823 101.492 423.168 91.1466 435.989 89.5298C454.795 87.1551 470.609 102.982 468.235 121.777C466.618 134.598 456.274 144.943 443.453 146.56Z" fill="white" stroke="#BEC8D2" stroke-width="1.13932" stroke-miterlimit="10"/>
<path d="M439.713 150.576H55.1558V397.087H439.713V150.576Z" fill="#E5E9ED"/>
<path d="M439.713 160.454H55.1558V182.066H439.713V160.454Z" fill="#BEC8D2"/>
<path d="M78.0451 168.728L80.2049 171.001V174.058H75.8852V171.001L78.0451 168.728ZM78.0451 167.199C77.8556 167.199 77.6788 167.275 77.5272 167.439L74.9126 170.193C74.7358 170.383 74.6348 170.66 74.6348 170.938V174.323C74.6348 174.866 74.9884 175.308 75.4305 175.308H80.6723C81.1144 175.308 81.4681 174.866 81.4681 174.323V170.938C81.4681 170.648 81.367 170.37 81.1901 170.193L78.5756 167.439C78.424 167.287 78.2345 167.199 78.0578 167.199H78.0451Z" fill="#174159"/>
<path d="M88.2119 173.59L91.2307 171.644C91.5718 171.418 91.5718 171.089 91.2307 170.874L88.2119 168.929" stroke="#174159" stroke-width="1.13932" stroke-miterlimit="10" stroke-linecap="round"/>
<path d="M67.863 173.59L64.8442 171.644C64.5031 171.418 64.5031 171.089 64.8442 170.874L67.863 168.929" stroke="#174159" stroke-width="1.13932" stroke-miterlimit="10" stroke-linecap="round"/>
<path d="M395.227 164.547H104.365C102.551 164.547 101.081 166.017 101.081 167.831V174.689C101.081 176.503 102.551 177.973 104.365 177.973H395.227C397.04 177.973 398.511 176.503 398.511 174.689V167.831C398.511 166.017 397.04 164.547 395.227 164.547Z" fill="#F2F2F2"/>
<path d="M298.803 169.233H200.801V173.288H298.803V169.233Z" fill="#BEC8D2"/>
<path d="M111.527 169.233C112.652 170.357 112.652 172.163 111.527 173.287C110.403 174.411 108.597 174.411 107.473 173.287C106.349 172.163 106.349 170.357 107.473 169.233C108.597 168.109 110.403 168.109 111.527 169.233Z" stroke="#BEC8D2" stroke-width="1.13932" stroke-miterlimit="10"/>
<path d="M111.528 173.288L113.258 175.006" stroke="#BEC8D2" stroke-width="1.13932" stroke-miterlimit="10" stroke-linecap="round"/>
<path d="M394.052 171.253C394.052 172.832 392.763 174.121 391.184 174.121C389.605 174.121 388.316 172.832 388.316 171.253C388.316 169.674 389.605 168.387 391.184 168.387" stroke="#BEC8D2" stroke-width="1.13932" stroke-miterlimit="10" stroke-linecap="round"/>
<path d="M391.183 167.591L392.711 168.614L391.183 169.65V167.591Z" stroke="#BEC8D2" stroke-width="1.13932" stroke-linecap="round" stroke-linejoin="round"/>
<path d="M410.865 167.187L411.875 170.294H415.134L412.494 172.214L413.505 175.321L410.865 173.401L408.212 175.321L409.223 172.214L406.583 170.294H409.854L410.865 167.187Z" stroke="#174159" stroke-width="1.13932" stroke-linecap="round" stroke-linejoin="round"/>
<path d="M422.043 167.856H432.717" stroke="#174159" stroke-width="1.13932" stroke-linecap="round" stroke-linejoin="round"/>
<path d="M422.043 171.254H432.717" stroke="#174159" stroke-width="1.13932" stroke-linecap="round" stroke-linejoin="round"/>
<path d="M422.043 174.664H432.717" stroke="#174159" stroke-width="1.13932" stroke-linecap="round" stroke-linejoin="round"/>
<path d="M439.701 150.576V397.087H55.1558" stroke="#174159" stroke-width="0.85449" stroke-miterlimit="10"/>
<path d="M439.713 150.576H55.1558V160.454H439.713V150.576Z" fill="#174159"/>
<path d="M62.8613 157.826C64.1378 157.826 65.1727 156.791 65.1727 155.515C65.1727 154.238 64.1378 153.203 62.8613 153.203C61.5847 153.203 60.5498 154.238 60.5498 155.515C60.5498 156.791 61.5847 157.826 62.8613 157.826Z" fill="#E03F3F"/>
<path d="M69.2137 157.826C70.4904 157.826 71.5252 156.791 71.5252 155.515C71.5252 154.238 70.4904 153.203 69.2137 153.203C67.9372 153.203 66.9023 154.238 66.9023 155.515C66.9023 156.791 67.9372 157.826 69.2137 157.826Z" fill="#2D80EA"/>
<path d="M77.8646 155.515C77.8646 156.791 76.8288 157.826 75.5531 157.826C74.2774 157.826 73.2417 156.791 73.2417 155.515C73.2417 154.239 74.2774 153.203 75.5531 153.203C76.8288 153.203 77.8646 154.239 77.8646 155.515Z" fill="#E148BE"/>
<path d="M410.096 367.481H277.156V382.512H410.096V367.481Z" fill="#2176FF"/>
<path d="M101.942 227.564C111.617 227.564 119.461 219.72 119.461 210.044C119.461 200.368 111.617 192.524 101.942 192.524C92.2664 192.524 84.4229 200.368 84.4229 210.044C84.4229 219.72 92.2664 227.564 101.942 227.564Z" fill="#2176FF"/>
<path d="M196.698 202.692H128.189V208.642H196.698V202.692Z" fill="#E03F3F"/>
<path d="M178.548 211.459H128.189V217.408H178.548V211.459Z" fill="#E03F3F"/>
<path d="M324.573 202.692H290.319V208.642H324.573V202.692Z" fill="#BEC8D2"/>
<path d="M367.329 202.692H333.074V208.642H367.329V202.692Z" fill="#BEC8D2"/>
<path d="M85.0908 234.157H409.765" stroke="#174159" stroke-width="1.13932" stroke-miterlimit="10"/>
<path d="M196.697 309.503H85.0908V318.484H196.697V309.503Z" fill="#E03F3F"/>
<path d="M240.387 327.086H85.0908V331.065H240.387V327.086Z" fill="#BEC8D2"/>
<path d="M226.834 334.778H85.0908V338.757H226.834V334.778Z" fill="#BEC8D2"/>
<path d="M215.365 342.471H85.0908V346.45H215.365V342.471Z" fill="#BEC8D2"/>
<path d="M240.387 350.163H85.0908V354.142H240.387V350.163Z" fill="#BEC8D2"/>
<g filter="url(#filter0_d_201_6474)">
<path d="M131.345 367.48H92.6066C88.4561 367.48 85.0913 370.845 85.0913 374.995C85.0913 379.146 88.4561 382.511 92.6066 382.511H131.345C135.496 382.511 138.861 379.146 138.861 374.995C138.861 370.845 135.496 367.48 131.345 367.48Z" fill="#E03F3F"/>
</g>
<g filter="url(#filter1_d_201_6474)">
<path d="M193.275 367.481H154.536C150.386 367.481 147.021 370.846 147.021 374.996C147.021 379.147 150.386 382.512 154.536 382.512H193.275C197.425 382.512 200.791 379.147 200.791 374.996C200.791 370.846 197.425 367.481 193.275 367.481Z" fill="#174159"/>
</g>
<path d="M107.763 249.05H85.0908V271.723H107.763V249.05Z" fill="#2176FF"/>
<path d="M85.0908 249.05L107.763 271.723" stroke="#F2F2F2" stroke-width="0.56966" stroke-miterlimit="10"/>
<path d="M107.763 249.05L85.0908 271.723" stroke="#F2F2F2" stroke-width="0.56966" stroke-miterlimit="10"/>
<path d="M139.517 249.05H116.844V271.723H139.517V249.05Z" fill="#2176FF"/>
<path d="M116.844 249.05L139.517 271.723" stroke="#F2F2F2" stroke-width="0.56966" stroke-miterlimit="10"/>
<path d="M139.517 249.05L116.844 271.723" stroke="#F2F2F2" stroke-width="0.56966" stroke-miterlimit="10"/>
<path d="M171.27 249.05H148.598V271.723H171.27V249.05Z" fill="#2176FF"/>
<path d="M148.598 249.05L171.282 271.723" stroke="#F2F2F2" stroke-width="0.56966" stroke-miterlimit="10"/>
<path d="M171.282 249.05L148.598 271.723" stroke="#F2F2F2" stroke-width="0.56966" stroke-miterlimit="10"/>
<g filter="url(#filter2_d_201_6474)">
<path d="M206.7 279.351L88.7935 277.479L88.4756 297.496L206.382 299.37L206.7 279.351Z" fill="#2176FF"/>
</g>
<path d="M332.627 15.0811V113.731" stroke="#BEC8D2" stroke-width="1.13932" stroke-miterlimit="10" stroke-linecap="round"/>
<path d="M338.577 135.635C337.666 135.66 336.96 136.43 336.985 137.34C337.048 139.412 335.418 141.369 333.348 141.697C332.842 141.773 332.312 141.811 331.769 141.697C331.251 141.622 330.783 141.445 330.328 141.179C329.419 140.661 328.686 139.778 328.358 138.817C328.017 137.833 327.928 136.619 328.396 135.685C330.733 130.986 335.406 127.98 335.406 123.269C338.791 122.106 341.229 118.898 341.229 115.134C341.229 110.384 337.363 106.52 332.615 106.52C327.865 106.52 324 110.384 324 115.134C324 118.784 326.286 121.892 329.495 123.154C329.192 126.452 325.352 129.42 323.735 133.866C322.965 135.988 323.129 138.312 323.938 140.308C324.746 142.316 326.261 143.958 328.105 144.893C329.95 145.865 332.084 146.055 333.991 145.639C335.911 145.196 337.629 144.072 338.74 142.544C339.878 141.027 340.396 139.146 340.281 137.352V137.188C340.218 136.304 339.46 135.621 338.577 135.647V135.635ZM332.627 111.572C334.585 111.572 336.189 113.163 336.189 115.134C336.189 116.334 335.583 117.395 334.673 118.039C334.067 117.47 333.233 117.155 332.35 117.23C331.667 117.294 331.061 117.597 330.593 118.026C329.684 117.382 329.078 116.321 329.078 115.122C329.078 113.163 330.67 111.559 332.64 111.559L332.627 111.572Z" fill="#BEC8D2"/>
<g filter="url(#filter3_d_201_6474)">
<path d="M432.468 197.724L214.341 227.721L232.037 356.409L450.164 326.412L432.468 197.724Z" fill="#EAF2FF"/>
<path d="M384.416 250.263L328.916 323.46L280.919 287.07L231.444 352.297L232.012 356.427L450.146 326.441L446.117 297.049L384.416 250.263Z" fill="#2176FF"/>
<path d="M428.142 203.451L444.449 322.134L236.331 350.743L220.025 232.06L428.142 203.451ZM432.462 197.755L214.328 227.74L232.011 356.427L450.145 326.442L432.462 197.755Z" fill="#2176FF"/>
<path d="M333.468 264.266C339.812 256.378 338.56 244.841 330.674 238.497C322.786 232.153 311.249 233.405 304.906 241.292C298.562 249.18 299.813 260.717 307.7 267.06C315.588 273.405 327.124 272.153 333.468 264.266Z" fill="#2176FF"/>
</g>
<path d="M228.515 225.783L218.65 259.154L230.738 225.479" stroke="#BEC8D2" stroke-width="1.13932" stroke-linecap="round" stroke-linejoin="round"/>
<path d="M411.267 200.179L437.059 231.189L409.044 199.876" stroke="#BEC8D2" stroke-width="1.13932" stroke-linecap="round" stroke-linejoin="round"/>
<path d="M409.045 199.876L336.115 143.377C334.385 140.926 330.772 140.864 328.954 143.251L230.736 225.48" stroke="#BEC8D2" stroke-width="1.13932" stroke-linecap="round" stroke-linejoin="round"/>
<path d="M329.48 22.6919C333.684 18.4891 333.684 11.6751 329.48 7.47237C325.278 3.26962 318.465 3.26962 314.262 7.47237C310.059 11.6751 310.059 18.4891 314.262 22.6919C318.465 26.8946 325.278 26.8946 329.48 22.6919Z" stroke="#BEC8D2" stroke-width="1.13932" stroke-miterlimit="10" stroke-linecap="round"/>
<path d="M321.865 19.0602C324.062 19.0602 325.844 17.2788 325.844 15.0814C325.844 12.8839 324.062 11.1025 321.865 11.1025C319.667 11.1025 317.887 12.8839 317.887 15.0814C317.887 17.2788 319.667 19.0602 321.865 19.0602Z" stroke="#BEC8D2" stroke-width="1.13932" stroke-miterlimit="10" stroke-linecap="round"/>
<path d="M403.023 349.834C398.892 368.604 400.484 392.729 409.616 406.813C416.816 417.928 429.623 421.364 441.041 430.156L440.51 435.65L445.538 429.65C445.538 429.65 439.209 423.36 420.819 404.362C416.323 399.714 419.531 381.348 420.706 376.751C426.427 369.121 420.68 361.151 416.904 349.834H403.023Z" fill="#174159"/>
<path d="M441.041 430.155L440.51 435.65L445.537 429.649L443.402 427.515C443.402 427.515 443.667 429.801 441.028 430.155H441.041Z" fill="#2D80EA"/>
<path d="M397.743 349.834C385.68 373.631 386.186 388.877 403.629 444.428L398.059 447.877H406.56C406.56 447.877 406.193 389.167 409.616 375.778C415.338 368.148 415.413 361.151 411.637 349.834H397.756H397.743Z" fill="#2E546A"/>
<path d="M398.06 447.877H406.561V444.429C406.561 444.429 404.729 445.502 403.63 444.429L398.06 447.877Z" fill="#2D80EA"/>
<path d="M410.816 295.027C408.694 301.52 402.72 304.677 399.613 304.096C396.493 303.515 394.876 298.21 396 292.248C397.125 286.286 400.522 282.901 403.668 282.509C408.176 281.953 413.759 286.021 410.829 295.027H410.816Z" fill="#F2F2F2"/>
<path d="M409.477 296.82H403.629V311.51H409.477V296.82Z" fill="#F2F2F2"/>
<path d="M404.789 308.037C397.11 309.439 391.944 322.032 391.186 326.555C390.731 329.233 391.034 331.834 394.002 337.038C398.133 344.288 397.753 349.834 397.753 349.834H417.004C417.004 344.073 420.704 337.62 422.889 328.638C425.074 319.657 417.837 305.662 404.801 308.037H404.789Z" fill="#2D80EA"/>
<path d="M411.371 308.328C411.371 308.328 422.536 309.667 427.134 308.038C437.971 304.172 442.669 294.863 443.036 285.263H445.966C445.966 285.263 449.894 313.607 423.079 323.726L411.371 308.328Z" fill="#428DEC"/>
<path d="M443.037 285.262C441.08 283.102 442.317 281.334 441.546 279.629C440.777 277.936 441.724 275.991 443.846 280.626L442.962 274.134C442.962 274.134 445.5 275.41 445.968 285.262H443.037Z" fill="#F2F2F2"/>
<path d="M404.299 309.539C410.047 310.663 409.339 321.072 402.771 327.097C396.569 332.781 379.063 337.758 355.506 340.802L354.736 338.212C354.736 338.212 367.91 335.799 379.378 328.828C390.848 321.855 396.001 307.897 404.299 309.527V309.539Z" fill="#428DEC"/>
<path d="M354.734 338.226C352.208 337.038 350.869 338.554 349.076 338.289C347.282 338.024 346.398 339.237 351.286 339.982L344.566 340.955C344.566 340.955 346.145 342.824 355.492 340.815L354.721 338.226H354.734Z" fill="#F2F2F2"/>
<path d="M396.883 283.292C393.929 288.471 403.641 287.195 403.641 292.273C403.641 297.351 393.006 298.297 391.023 304.917C388.762 312.483 404.198 310.461 401.873 318.318C398.462 329.85 375.867 330.823 384.468 343.05C390.733 351.955 406.003 346.89 404.286 361.429C402.606 375.538 428.385 372.696 430.608 361.126C432.086 353.433 417.713 348.747 425.758 342.936C435.61 335.825 448.064 326.289 437.403 318.23C432.022 314.15 417.447 311.624 415.969 305.08C414.492 298.537 423.092 288.471 412.862 281.776C402.366 274.917 396.897 283.305 396.897 283.305L396.883 283.292Z" fill="#E03F3F"/>
<path d="M138.469 130.088C138.469 130.088 143.496 150.564 154.195 150.564C178.698 150.564 185.708 141.179 195.522 141.823C200.727 142.164 213.761 150.564 213.761 150.564H221.125L215.959 147.343C215.959 147.343 201.851 128.864 192.403 127.713C180.429 126.261 164.577 138.147 156.063 130.076H138.481L138.469 130.088Z" fill="#174159"/>
<path d="M213.763 150.564L212.12 149.541C212.12 149.541 215 149.718 215.948 147.355L221.114 150.577H213.751L213.763 150.564Z" fill="#2D80EA"/>
<path d="M316.31 5.87305L202.507 77.6563L186.15 93.2433V147.343" stroke="#BEC8D2" stroke-width="1.13932" stroke-miterlimit="10" stroke-linecap="round"/>
<path d="M183.26 95.3908C184.271 93.673 186.62 90.3005 187.794 92.5362C188.54 93.9509 188.237 96.4519 187.567 96.6918C186.898 96.9445 185.142 97.096 185.142 97.096L183.272 95.3908H183.26Z" fill="#BEC8D2"/>
<path d="M135.375 92.0184C144.696 86.7638 159.803 103.589 164.375 104.46C171.777 105.863 182.323 96.1488 183.259 95.391L185.128 97.0962C185.128 97.0962 173.583 113.669 162.658 113.984C151.732 114.3 123.477 98.7256 135.375 92.0184Z" fill="#2D80EA"/>
<path d="M183.26 95.391C183.639 93.6479 184.258 92.9785 185.483 92.3343C187.251 91.3869 186.885 90.4648 187.479 90.4648C188.072 90.4648 188.691 92.1827 187.201 92.789C187.201 92.789 187.264 95.8457 184.611 96.6289L183.272 95.4037L183.26 95.391Z" fill="#F2F2F2"/>
<path d="M187.794 92.5361C187.87 93.1803 187.162 93.0793 186.467 93.054C185.533 93.0161 184.585 92.8772 184.737 94.1024C184.99 96.0224 184.7 97.1086 185.621 97.1466C186.544 97.1844 187.188 97.3992 187.781 97.0834C188.375 96.7676 188.704 93.9888 187.781 92.5361H187.794Z" fill="#F2F2F2"/>
<path d="M156.959 124.797C168.996 148.556 178.305 172.909 200.599 193.991L206.889 192.159L201.205 198.462C201.205 198.462 154.572 171.178 141.916 154.442C136.207 146.825 134.779 141.356 138.556 130.051L156.959 124.784V124.797Z" fill="#2E546A"/>
<path d="M201.208 198.476L206.891 192.172L200.602 194.004C200.602 194.004 200.917 196.138 198.63 196.947L201.208 198.476Z" fill="#2D80EA"/>
<path d="M130.31 80.3474C133.784 85.5261 139.821 86.8272 142.411 85.5388C144.999 84.2504 145.114 79.1853 142.65 74.2212C140.187 69.2571 136.36 67.1225 133.493 67.5645C129.387 68.1961 125.485 73.1602 130.31 80.3474Z" fill="#F2F2F2"/>
<path d="M132.468 95.3907L140.703 93.0665L137.053 80.1448L128.136 75.0039L132.468 95.3907Z" fill="#F2F2F2"/>
<path d="M138.722 90.3004C129.994 91.3992 122.479 93.8876 126.193 123.18C129.666 150.653 138.722 150.564 138.722 150.564C138.722 150.564 166.22 152.509 171.778 131.756C171.778 131.756 159.955 123.533 156.291 108.653C152.629 93.7739 145.467 89.454 138.722 90.3129V90.3004Z" fill="#2176FF"/>
<path d="M138.722 90.301L199.161 77.6191L200.588 80.8906C200.588 80.8906 158.969 107.896 144.431 108.831C129.892 109.765 128.2 93.4587 138.722 90.301Z" fill="#428DEC"/>
<path d="M199.158 77.6186C199.158 77.6186 201.672 74.1956 203.125 74.423C204.577 74.6503 206.484 77.947 205.676 79.2229C204.867 80.4986 200.599 80.8901 200.599 80.8901L199.171 77.6186H199.158Z" fill="#F2F2F2"/>
<path d="M131.079 88.8862C131.079 88.8862 135.576 87.2442 135.361 82.0527C135.361 82.0527 133.239 83.1643 132.62 78.5539C132.342 76.4445 134.413 76.0276 135.361 78.3392C136.687 78.8318 138.493 77.9223 138.215 75.4719C137.774 71.5184 142.699 72.1877 142.877 67.5016C143.103 61.4386 131.016 53.4809 128.729 59.0008C126.86 63.5228 127.403 66.2258 121.681 66.289C111.147 66.39 121.934 90.9957 131.079 88.8737V88.8862Z" fill="#174159"/>
<path d="M95.9797 349.834C100.11 368.604 98.5185 392.729 89.3864 406.813C82.1868 417.928 69.3792 421.364 57.9609 430.156L58.4914 435.65L53.4644 429.65C53.4644 429.65 59.7924 423.36 78.1828 404.362C82.6794 399.714 79.4712 381.348 78.2966 376.751C72.5748 369.121 78.3217 361.151 82.0984 349.834H95.9797Z" fill="#174159"/>
<path d="M57.9609 430.155L58.4914 435.65L53.4644 429.649L55.599 427.515C55.599 427.515 55.3337 429.801 57.9736 430.155H57.9609Z" fill="#2D80EA"/>
<path d="M101.261 349.834C113.323 373.631 112.818 388.877 95.3745 444.428L100.945 447.877H92.4442C92.4442 447.877 92.8105 389.167 89.3876 375.778C83.6658 368.148 83.59 361.151 87.3666 349.834H101.248H101.261Z" fill="#2E546A"/>
<path d="M100.931 447.877H92.4307V444.429C92.4307 444.429 94.2622 445.502 95.3611 444.429L100.931 447.877Z" fill="#2D80EA"/>
<path d="M88.1863 295.027C90.3082 301.52 96.2826 304.677 99.3898 304.096C102.51 303.515 104.126 298.21 103.002 292.248C101.878 286.286 98.4804 282.901 95.3353 282.509C90.8261 281.953 85.2433 286.021 88.1736 295.027H88.1863Z" fill="#F2F2F2"/>
<path d="M85.0938 311.497H95.3626V296.808H85.0938V311.497Z" fill="#F2F2F2"/>
<path d="M87.631 308.328C87.631 308.328 76.4654 309.667 71.8678 308.038C61.0305 304.172 56.3318 294.863 55.9655 285.263H53.0352C53.0352 285.263 49.107 313.607 75.9222 323.726L87.631 308.328Z" fill="#428DEC"/>
<path d="M55.9524 285.262C57.9101 283.102 56.6723 281.334 57.4428 279.629C58.2132 277.936 57.2659 275.991 55.144 280.626V274.134C55.144 274.134 53.4893 275.41 53.022 285.262H55.9524Z" fill="#F2F2F2"/>
<path d="M99.631 310.387C92.4946 306.849 89.5138 308.328 77.5776 308.833C65.6416 309.338 75.7841 338.125 75.7841 370.524C75.7841 370.524 86.154 376.549 111.971 370.524C111.971 370.524 110.961 316.007 99.6184 310.387H99.631Z" fill="#2176FF"/>
<path d="M94.628 299.056C96.3964 302.176 86.2159 304.904 83.5129 301.76C80.8099 298.627 71.6778 296.164 78.3849 283.949C81.3026 278.631 82.4141 270.825 86.7464 270.068C97.1415 268.261 102.143 276.244 101.903 280.956C101.575 287.448 99.0488 291.351 96.4342 292.64C94.6533 293.511 91.8872 294.206 94.6407 299.056H94.628Z" fill="#174159"/>
<path d="M93.7439 308.352C106.122 308.289 115.292 315.097 124.323 315.943C134.844 316.941 145.303 309.793 147.413 304.159L152.136 303.338C152.136 303.338 144.975 318.47 124.778 325.101C114.635 328.436 102.219 328.954 94.7039 325.493C87.1885 322.032 85.0665 308.39 93.7439 308.352Z" fill="#428DEC"/>
<path d="M147.411 304.158C145.92 301.948 148.181 299.675 148.497 298.008C148.812 296.352 149.659 295.127 150.492 294.95C151.894 294.647 151.478 296.605 151.023 298.487C150.972 298.689 151.175 298.854 151.351 298.765C152.437 298.273 155.267 297.11 157.414 297.325C158.159 297.401 158.614 298.209 155.62 299.7C152.715 301.152 152.122 303.337 152.122 303.337L147.398 304.158H147.411Z" fill="#F2F2F2"/>
<g filter="url(#filter4_d_201_6474)">
<path d="M286.744 390.557H146.226V427.984H286.744V390.557Z" fill="#E03F3F"/>
<path d="M178.346 397.921H155.674V420.594H178.346V397.921Z" fill="#2176FF"/>
<path d="M155.674 397.921L178.346 420.594" stroke="#5620D8" stroke-width="0.56966" stroke-miterlimit="10"/>
<path d="M178.346 397.921L155.674 420.594" stroke="#5620D8" stroke-width="0.56966" stroke-miterlimit="10"/>
<path d="M270.93 402.936H186.24V405.601H270.93V402.936Z" fill="#5799EE"/>
<path d="M270.93 412.915H186.24V415.579H270.93V412.915Z" fill="#5799EE"/>
<path d="M261.797 407.925H186.24V410.59H261.797V407.925Z" fill="#5799EE"/>
</g>
<g filter="url(#filter5_d_201_6474)">
<path d="M263.162 406.663H122.644V444.089H263.162V406.663Z" fill="#2176FF"/>
<path d="M154.753 414.039H132.08V436.712H154.753V414.039Z" fill="#E03F3F"/>
<path d="M132.08 414.039L154.753 436.712" stroke="#2D80EA" stroke-width="0.56966" stroke-miterlimit="10"/>
<path d="M154.753 414.039L132.08 436.712" stroke="#2D80EA" stroke-width="0.56966" stroke-miterlimit="10"/>
<path d="M247.335 419.054H162.646V421.719H247.335V419.054Z" fill="#5799EE"/>
<path d="M247.335 429.033H162.646V431.699H247.335V429.033Z" fill="#5799EE"/>
<path d="M238.204 424.043H162.646V426.708H238.204V424.043Z" fill="#5799EE"/>
</g>
<path d="M252.022 132.337C254.06 132.337 255.711 130.686 255.711 128.649C255.711 126.612 254.06 124.961 252.022 124.961C249.985 124.961 248.335 126.612 248.335 128.649C248.335 130.686 249.985 132.337 252.022 132.337Z" fill="white" stroke="#BEC8D2" stroke-width="1.13932" stroke-miterlimit="10"/>
<path d="M238.686 111.736C242.683 111.736 245.924 108.496 245.924 104.498C245.924 100.501 242.683 97.2607 238.686 97.2607C234.689 97.2607 231.448 100.501 231.448 104.498C231.448 108.496 234.689 111.736 238.686 111.736Z" fill="white" stroke="#BEC8D2" stroke-width="1.13932" stroke-miterlimit="10"/>
<path d="M275.086 114.97C277.375 114.97 279.23 113.115 279.23 110.826C279.23 108.538 277.375 106.684 275.086 106.684C272.798 106.684 270.943 108.538 270.943 110.826C270.943 113.115 272.798 114.97 275.086 114.97Z" fill="white" stroke="#BEC8D2" stroke-width="1.13932" stroke-miterlimit="10"/>
<path d="M6.46581 92.221C9.68863 92.221 12.3012 89.6083 12.3012 86.3854C12.3012 83.1625 9.68863 80.5498 6.46581 80.5498C3.24298 80.5498 0.630371 83.1625 0.630371 86.3854C0.630371 89.6083 3.24298 92.221 6.46581 92.221Z" fill="white" stroke="#BEC8D2" stroke-width="1.13932" stroke-miterlimit="10"/>
<path d="M20.8645 73.2108C23.6339 73.2108 25.879 70.9657 25.879 68.1963C25.879 65.4267 23.6339 63.1816 20.8645 63.1816C18.0951 63.1816 15.8501 65.4267 15.8501 68.1963C15.8501 70.9657 18.0951 73.2108 20.8645 73.2108Z" fill="white" stroke="#BEC8D2" stroke-width="1.13932" stroke-miterlimit="10"/>
<path d="M477.165 190.934C479.614 190.934 481.598 188.949 481.598 186.501C481.598 184.052 479.614 182.067 477.165 182.067C474.716 182.067 472.731 184.052 472.731 186.501C472.731 188.949 474.716 190.934 477.165 190.934Z" fill="white" stroke="#BEC8D2" stroke-width="1.13932" stroke-miterlimit="10"/>
<path d="M515.539 188.124C519.307 184.356 519.307 178.245 515.539 174.477C511.771 170.708 505.66 170.708 501.892 174.477C498.124 178.245 498.124 184.356 501.892 188.124C505.66 191.893 511.771 191.893 515.539 188.124Z" fill="white" stroke="#BEC8D2" stroke-width="1.13932" stroke-miterlimit="10"/>
<defs>
<filter id="filter0_d_201_6474" x="85.0913" y="367.48" width="54.9084" height="16.1696" filterUnits="userSpaceOnUse" color-interpolation-filters="sRGB">
<feFlood flood-opacity="0" result="BackgroundImageFix"/>
<feColorMatrix in="SourceAlpha" type="matrix" values="0 0 0 0 0 0 0 0 0 0 0 0 0 0 0 0 0 0 127 0" result="hardAlpha"/>
<feOffset dx="1.13932" dy="1.13932"/>
<feColorMatrix type="matrix" values="0 0 0 0 0 0 0 0 0 0 0 0 0 0 0 0 0 0 0.2 0"/>
<feBlend mode="normal" in2="BackgroundImageFix" result="effect1_dropShadow_201_6474"/>
<feBlend mode="normal" in="SourceGraphic" in2="effect1_dropShadow_201_6474" result="shape"/>
</filter>
<filter id="filter1_d_201_6474" x="147.021" y="367.481" width="54.9089" height="16.1696" filterUnits="userSpaceOnUse" color-interpolation-filters="sRGB">
<feFlood flood-opacity="0" result="BackgroundImageFix"/>
<feColorMatrix in="SourceAlpha" type="matrix" values="0 0 0 0 0 0 0 0 0 0 0 0 0 0 0 0 0 0 127 0" result="hardAlpha"/>
<feOffset dx="1.13932" dy="1.13932"/>
<feColorMatrix type="matrix" values="0 0 0 0 0 0 0 0 0 0 0 0 0 0 0 0 0 0 0.2 0"/>
<feBlend mode="normal" in2="BackgroundImageFix" result="effect1_dropShadow_201_6474"/>
<feBlend mode="normal" in="SourceGraphic" in2="effect1_dropShadow_201_6474" result="shape"/>
</filter>
<filter id="filter2_d_201_6474" x="88.4756" y="277.479" width="120.503" height="23.0299" filterUnits="userSpaceOnUse" color-interpolation-filters="sRGB">
<feFlood flood-opacity="0" result="BackgroundImageFix"/>
<feColorMatrix in="SourceAlpha" type="matrix" values="0 0 0 0 0 0 0 0 0 0 0 0 0 0 0 0 0 0 127 0" result="hardAlpha"/>
<feOffset dx="2.27864" dy="1.13932"/>
<feColorMatrix type="matrix" values="0 0 0 0 0 0 0 0 0 0 0 0 0 0 0 0 0 0 0.2 0"/>
<feBlend mode="normal" in2="BackgroundImageFix" result="effect1_dropShadow_201_6474"/>
<feBlend mode="normal" in="SourceGraphic" in2="effect1_dropShadow_201_6474" result="shape"/>
</filter>
<filter id="filter3_d_201_6474" x="214.328" y="197.724" width="247.229" height="178.073" filterUnits="userSpaceOnUse" color-interpolation-filters="sRGB">
<feFlood flood-opacity="0" result="BackgroundImageFix"/>
<feColorMatrix in="SourceAlpha" type="matrix" values="0 0 0 0 0 0 0 0 0 0 0 0 0 0 0 0 0 0 127 0" result="hardAlpha"/>
<feOffset dx="11.3932" dy="19.3684"/>
<feColorMatrix type="matrix" values="0 0 0 0 0 0 0 0 0 0 0 0 0 0 0 0 0 0 0.2 0"/>
<feBlend mode="normal" in2="BackgroundImageFix" result="effect1_dropShadow_201_6474"/>
<feBlend mode="normal" in="SourceGraphic" in2="effect1_dropShadow_201_6474" result="shape"/>
</filter>
<filter id="filter4_d_201_6474" x="146.226" y="390.557" width="141.657" height="38.5661" filterUnits="userSpaceOnUse" color-interpolation-filters="sRGB">
<feFlood flood-opacity="0" result="BackgroundImageFix"/>
<feColorMatrix in="SourceAlpha" type="matrix" values="0 0 0 0 0 0 0 0 0 0 0 0 0 0 0 0 0 0 127 0" result="hardAlpha"/>
<feOffset dx="1.13932" dy="1.13932"/>
<feColorMatrix type="matrix" values="0 0 0 0 0 0 0 0 0 0 0 0 0 0 0 0 0 0 0.2 0"/>
<feBlend mode="normal" in2="BackgroundImageFix" result="effect1_dropShadow_201_6474"/>
<feBlend mode="normal" in="SourceGraphic" in2="effect1_dropShadow_201_6474" result="shape"/>
</filter>
<filter id="filter5_d_201_6474" x="122.644" y="406.663" width="141.657" height="38.5651" filterUnits="userSpaceOnUse" color-interpolation-filters="sRGB">
<feFlood flood-opacity="0" result="BackgroundImageFix"/>
<feColorMatrix in="SourceAlpha" type="matrix" values="0 0 0 0 0 0 0 0 0 0 0 0 0 0 0 0 0 0 127 0" result="hardAlpha"/>
<feOffset dx="1.13932" dy="1.13932"/>
<feColorMatrix type="matrix" values="0 0 0 0 0 0 0 0 0 0 0 0 0 0 0 0 0 0 0.2 0"/>
<feBlend mode="normal" in2="BackgroundImageFix" result="effect1_dropShadow_201_6474"/>
<feBlend mode="normal" in="SourceGraphic" in2="effect1_dropShadow_201_6474" result="shape"/>
</filter>
</defs>
</svg>
