<svg width="100" height="100" viewBox="0 0 100 100" fill="none" xmlns="http://www.w3.org/2000/svg">
<g clip-path="url(#clip0_201_6887)">
<mask id="mask0_201_6887" style="mask-type:luminance" maskUnits="userSpaceOnUse" x="22" y="22" width="56" height="56">
<path d="M77.7777 22.2222H22.2222V77.5612H77.7777V22.2222Z" fill="white"/>
</mask>
<g mask="url(#mask0_201_6887)">
<path d="M30.6145 77.5612C29.329 77.5612 28.0448 77.5598 26.7593 77.5538C24.7904 77.5451 23.0586 76.2992 22.4504 74.457C22.3886 74.2686 22.337 74.077 22.284 73.8723C22.2634 73.7958 22.2427 73.7177 22.2222 73.6412V26.1644C22.2487 26.0995 22.2811 26.0201 22.3031 25.9287C22.8643 23.5755 24.5474 22.2251 26.9227 22.2251C34.7673 22.2237 42.6134 22.2222 50.4594 22.2222C58.3055 22.2222 65.5506 22.2222 73.0963 22.2251C75.8059 22.2251 77.7733 24.1851 77.7748 26.8859C77.7806 42.3026 77.7793 57.7812 77.7704 72.8931C77.7704 73.3437 77.7144 73.7929 77.6084 74.1948C77.0649 76.2683 75.2949 77.5569 72.9873 77.5569C67.1205 77.5569 43.9534 77.5569 43.9534 77.5569H36.1265C35.2076 77.5569 34.2902 77.5569 33.3713 77.5583C32.4538 77.5583 31.5349 77.5598 30.6161 77.5598L30.6145 77.5612ZM24.6461 72.6015C24.6461 74.354 25.428 75.1344 27.1834 75.1344H72.8077C74.5674 75.1344 75.3523 74.3554 75.3523 72.6074V37.9113H24.6461V72.6001V72.6015ZM26.9919 24.6476C25.5031 24.6476 24.6476 25.4987 24.6461 26.9845C24.6447 28.7649 24.6461 30.5438 24.6461 32.3243V35.4226H75.3523V32.2404C75.3523 30.4865 75.3523 28.7311 75.3523 26.9772C75.3509 25.4973 74.4923 24.649 72.9976 24.649H50.0486L26.9919 24.6476Z" fill="#5D6DFD"/>
<path d="M45.0413 69.2925C44.8779 69.2925 44.7115 69.2557 44.5494 69.1821C43.8897 68.8877 43.6762 68.1999 44.0061 67.4298C47.2473 59.8591 50.543 52.1721 53.8004 44.5807C54.033 44.0374 54.4645 43.7134 54.9534 43.7134C55.0286 43.7134 55.1066 43.7207 55.1831 43.7355C55.7456 43.846 56.1373 44.3541 56.1698 45.0107C56.1638 45.0343 56.1565 45.0593 56.1491 45.0874C56.1138 45.2243 56.0652 45.4113 55.9945 45.5748C52.7769 53.0969 49.4915 60.7677 46.2281 68.3737C45.9823 68.948 45.5376 69.2896 45.0398 69.2896L45.0413 69.2925Z" fill="#5D6DFD"/>
<path d="M40.2178 64.2638C39.8585 64.2638 39.5081 64.1725 39.3254 64.0296C36.4818 61.8192 33.6853 59.5661 31.0656 57.4485C30.7549 57.1967 30.5825 56.861 30.5825 56.5031C30.5825 56.1438 30.7549 55.8081 31.0671 55.5563C33.491 53.5977 36.0989 51.511 39.2739 48.9885C39.5315 48.7838 39.8202 48.6763 40.1089 48.6763C40.4593 48.6763 40.7818 48.8367 41.016 49.1268C41.4652 49.6835 41.3606 50.411 40.7597 50.8954C39.3711 52.0175 37.9529 53.15 36.5804 54.2442C35.9679 54.7331 35.3567 55.2204 34.7456 55.7108C34.6307 55.8022 34.5189 55.8964 34.3907 56.0025L33.7767 56.5104L34.756 57.2999C35.1211 57.5943 35.4702 57.8771 35.8221 58.1583C36.417 58.6354 37.0135 59.1111 37.6084 59.5868C38.6613 60.4277 39.7142 61.2685 40.7642 62.1122C41.2103 62.4701 41.365 62.8707 41.2546 63.3743C41.1868 63.6806 40.985 64.202 40.3946 64.2564C40.3386 64.2622 40.2797 64.2638 40.2193 64.2638H40.2178Z" fill="#407BFF"/>
<path d="M59.8682 64.3251C59.5192 64.3251 59.2099 64.169 58.9757 63.8715C58.5222 63.2958 58.6458 62.5889 59.2924 62.0691C60.6339 60.9911 61.9783 59.9161 63.3229 58.8411L65.2653 57.2875C65.3713 57.2021 65.4758 57.1152 65.6025 57.0107L66.2268 56.4953C66.2268 56.4953 62.8708 53.8048 61.974 53.0876C61.6676 52.8418 61.3599 52.5973 61.0536 52.3529C60.4572 51.8772 59.8608 51.4015 59.2688 50.9215C58.942 50.6564 58.7417 50.3207 58.7078 49.979C58.6768 49.6771 58.774 49.3797 58.9861 49.1204C59.2217 48.8333 59.5279 48.6816 59.8726 48.6816C60.1774 48.6816 60.4911 48.8023 60.7768 49.0307C63.7897 51.4296 66.4197 53.5323 68.8157 55.4586C69.2015 55.7677 69.4047 56.1286 69.4047 56.4997C69.4047 56.8737 69.1883 57.2537 68.7936 57.5689C66.2504 59.6114 63.6352 61.7023 60.7958 63.9629C60.497 64.2014 60.1745 64.3266 59.8622 64.3266L59.8682 64.3251Z" fill="#407BFF"/>
<path d="M62.0425 31.2609C61.3945 31.2609 60.7466 31.2609 60.0986 31.2579C59.277 31.255 58.7203 30.7734 58.7129 30.0577C58.71 29.7293 58.8189 29.4452 59.0295 29.2331C59.2813 28.9784 59.6702 28.8384 60.1223 28.837C61.7082 28.837 63.2942 28.8354 64.8817 28.8354C66.4692 28.8354 68.0552 28.8354 69.6411 28.837C70.0961 28.837 70.4849 28.9768 70.7367 29.2316C70.9459 29.4436 71.0549 29.7278 71.0534 30.0563C71.0475 30.797 70.4967 31.258 69.6161 31.2593C68.9888 31.2593 68.3614 31.2593 67.7341 31.2593H64.8846H62.0439L62.0425 31.2609Z" fill="#407BFF"/>
<path d="M30.1543 31.2578C29.5049 31.2549 28.9526 30.7027 28.9497 30.0532C28.9482 29.7366 29.0749 29.4332 29.3075 29.2006C29.5401 28.9664 29.8421 28.8384 30.1601 28.8384H30.1851C30.8361 28.8531 31.3781 29.4127 31.3707 30.0635C31.3618 30.7114 30.8081 31.2593 30.1617 31.2593H30.1572L30.1543 31.2578Z" fill="#407BFF"/>
<path d="M36.7573 31.2579C36.1079 31.249 35.5601 30.6923 35.563 30.0415C35.5659 29.3921 36.1181 28.8398 36.7676 28.8369C37.4199 28.8369 37.9737 29.3847 37.9824 30.0326C37.9869 30.3522 37.8602 30.6571 37.6276 30.8926C37.3949 31.1283 37.0915 31.2579 36.772 31.2579H36.7573Z" fill="#407BFF"/>
<path d="M43.3695 31.2579C42.7201 31.249 42.1739 30.6909 42.1768 30.04C42.1797 29.3891 42.7319 28.8384 43.3829 28.8369C44.0352 28.8369 44.5888 29.3847 44.5962 30.0326C44.5993 30.3522 44.474 30.6571 44.2414 30.8926C44.0087 31.1283 43.7054 31.2564 43.3858 31.2564H43.3695V31.2579Z" fill="#407BFF"/>
</g>
</g>
<defs>
<clipPath id="clip0_201_6887">
<rect width="100" height="100" fill="white"/>
</clipPath>
</defs>
</svg>
