<svg width="100" height="100" viewBox="0 0 100 100" fill="none" xmlns="http://www.w3.org/2000/svg">
<g clip-path="url(#clip0_201_6880)">
<mask id="mask0_201_6880" style="mask-type:luminance" maskUnits="userSpaceOnUse" x="22" y="22" width="56" height="56">
<path d="M77.7777 22.2222H22.2222V77.7684H77.7777V22.2222Z" fill="white"/>
</mask>
<g mask="url(#mask0_201_6880)">
<path d="M44.953 63.2366C44.6345 66.4727 41.4758 68.5662 38.1485 67.1066C38.0434 67.2674 37.9305 67.4374 37.8191 67.6106C36.1973 70.1184 34.6109 72.6525 32.9412 75.128C31.5217 77.2321 29.4778 78.1103 26.9823 77.6466C24.5812 77.1998 23.0474 75.6923 22.4166 73.3406C21.7658 70.9131 22.7846 68.4192 24.9384 67.0138C27.3766 65.4243 29.8226 63.8505 32.2655 62.2688C32.4727 62.1342 32.6798 61.9966 32.8808 61.8637C31.4569 58.6709 33.3802 55.4256 36.7678 55.0313C33.8858 49.4899 33.3694 43.7477 35.4613 37.86C37.0924 33.2664 40.0658 29.6964 44.2263 27.1562C52.6512 22.0121 63.4509 23.5242 70.3019 30.7787C76.8976 37.761 77.683 48.7788 72.2514 56.7259C66.6591 64.9064 55.1374 68.696 44.953 63.2381V63.2366ZM55.0508 26.4527C44.8309 26.4387 36.5667 34.6842 36.5281 44.935C36.4895 55.1286 44.7566 63.4237 55.0013 63.4716C65.2181 63.5196 73.5626 55.1906 73.5533 44.9552C73.5426 34.7198 65.2908 26.4666 55.0508 26.4527ZM34.3852 63.6495C31.5805 65.4692 28.782 67.238 26.0345 69.0825C24.4266 70.1617 24.0756 72.3139 25.1378 73.8925C26.5758 76.0278 29.6045 75.986 31.061 73.7781C32.8005 71.1435 34.4981 68.4827 36.2127 65.831C36.2621 65.7553 36.2916 65.6656 36.3256 65.5945C35.6777 64.945 35.0531 64.3205 34.3837 63.6495H34.3852ZM39.9821 65.3023C41.233 65.2574 41.9458 64.8555 42.3633 64.0282C42.7884 63.1825 42.776 62.2873 42.1376 61.5931C40.9531 60.3052 39.7146 59.0589 38.4206 57.8824C37.5238 57.066 36.106 57.2639 35.3037 58.1714C34.4934 59.0884 34.5321 60.4273 35.401 61.3024C36.5003 62.4095 37.5764 63.5411 38.7221 64.5956C39.1334 64.9745 39.7194 65.16 39.9806 65.3023H39.9821Z" fill="#5D6DFD"/>
<path d="M67.938 25.69C67.001 25.6854 66.2155 24.9 66.211 23.963C66.2062 23.0029 67.0226 22.2019 67.9812 22.2221C68.9197 22.2422 69.6912 23.04 69.6789 23.9784C69.6665 24.9169 68.875 25.6947 67.938 25.6915V25.69Z" fill="#5D6DFD"/>
<path d="M26.857 36.6874C26.857 37.6259 26.0746 38.4129 25.1362 38.4206C24.1775 38.4284 23.372 37.6166 23.3889 36.6565C23.4045 35.7195 24.2007 34.9434 25.1377 34.9527C26.0762 34.9604 26.857 35.749 26.857 36.6874Z" fill="#407BFF"/>
<path d="M54.0472 70.8311C54.9841 70.8265 55.7773 71.6058 55.7897 72.5427C55.8021 73.5029 54.995 74.3115 54.0348 74.2991C53.0979 74.2868 52.3187 73.4951 52.3218 72.5582C52.3248 71.6212 53.1103 70.8358 54.0472 70.8311Z" fill="#407BFF"/>
<path d="M32.6573 23.3819C33.2743 23.3865 33.7907 23.8983 33.8015 24.5152C33.8123 25.1537 33.2773 25.6933 32.6389 25.6887C32.0003 25.6824 31.4746 25.1352 31.4947 24.4966C31.5148 23.8796 32.0404 23.3771 32.6558 23.3819H32.6573Z" fill="#407BFF"/>
<path d="M76.6321 32.6325C75.9935 32.6355 75.46 32.0959 75.4724 31.4573C75.4847 30.8405 76.0013 30.3302 76.6181 30.3272C77.2582 30.3225 77.79 30.8637 77.7777 31.5022C77.7653 32.1191 77.2474 32.6293 76.6304 32.634L76.6321 32.6325Z" fill="#407BFF"/>
<path d="M26.8802 51.1507C26.2416 51.1631 25.702 50.6297 25.7051 49.9911C25.7081 49.3742 26.2184 48.8578 26.8354 48.8454C27.4738 48.8331 28.0151 49.3665 28.0104 50.005C28.0058 50.622 27.4955 51.1399 26.8787 51.1522L26.8802 51.1507Z" fill="#407BFF"/>
<path d="M75.4607 72.0072C75.4484 72.6458 74.8934 73.1683 74.2578 73.139C73.6425 73.1111 73.1446 72.5793 73.1554 71.9638C73.1678 71.3254 73.7213 70.8043 74.3584 70.8337C74.9736 70.8615 75.4731 71.3933 75.4607 72.0072Z" fill="#407BFF"/>
<path d="M54.9422 32.3877C55.5111 31.8883 56.3058 31.528 57.2274 31.4862C57.971 31.4523 58.5122 31.8944 58.5617 32.5532C58.6111 33.2055 58.1426 33.705 57.3943 33.7947C56.5594 33.8951 56.1467 34.2554 56.0075 35.01C59.1275 35.8262 60.5051 37.8965 60.3289 40.8914C60.9226 41.2037 61.5951 41.349 61.8704 41.7604C62.1626 42.1994 62.076 42.889 62.1564 43.4689C63.1104 43.2384 63.9871 42.1593 64.1278 41.0305C64.151 40.8389 64.1525 40.6455 64.185 40.4554C64.2962 39.7766 64.7942 39.3576 65.4157 39.407C66.0465 39.4582 66.4639 39.9405 66.4717 40.6286C66.4964 42.8257 65.0383 44.9283 62.9388 45.7245C62.3564 45.9452 62.0714 46.3704 62.0838 47.0001C62.0868 47.1332 62.1024 47.2645 62.1147 47.4222C63.469 47.7779 64.6008 48.4644 65.4233 49.6084C66.0325 50.4573 66.3975 51.3973 66.4562 52.4457C66.5103 53.4089 66.1485 53.9547 65.4172 54.0211C64.706 54.0846 64.2344 53.565 64.151 52.6219C64.0411 51.3834 63.4072 50.5037 62.3126 49.9409C62.2461 49.9069 62.1688 49.8946 62.0436 49.8558C61.6678 51.9169 60.6675 53.5697 58.8987 54.7046C57.6789 55.4869 56.3338 55.8332 54.8881 55.7791C51.7494 55.6616 49.6807 53.7984 48.3665 49.913C47.3444 50.1465 46.4354 51.2458 46.2993 52.4132C46.2824 52.5662 46.2807 52.7208 46.2607 52.8739C46.1647 53.599 45.6808 54.0566 45.0515 54.0243C44.3851 53.9902 43.9539 53.4691 43.9615 52.7147C43.9894 50.4062 45.534 48.2865 47.7851 47.6047C48.3557 47.4315 48.3525 47.13 48.3572 46.6894C48.3603 46.258 48.3464 45.9797 47.8038 45.8143C45.554 45.1309 44.0311 43.0823 43.9646 40.7786C43.9414 39.9683 44.3496 39.4443 45.0361 39.4025C45.7118 39.3623 46.2096 39.8354 46.2638 40.6471C46.3457 41.8855 46.9115 42.7993 47.9876 43.4054C48.0681 43.4502 48.1593 43.4765 48.266 43.5183C48.3449 42.9107 48.3247 42.2984 48.5181 41.7634C48.7592 41.094 49.4642 41.1558 50.0672 41.1465C50.1043 40.474 50.0796 39.8523 50.1847 39.254C50.4971 37.4759 51.5004 36.188 53.144 35.4552C53.6574 35.2264 53.6574 34.979 53.4393 34.5847C53.1781 34.1101 52.7699 33.8596 52.2349 33.7962C51.3768 33.6926 50.9176 33.2133 50.9918 32.5176C51.0692 31.8016 51.686 31.3255 52.521 31.5157C53.3079 31.695 54.0532 32.0568 54.9422 32.3861V32.3877ZM56.3693 53.2604C58.2369 52.9111 59.7182 51.0355 59.7522 49.0333C59.7722 47.8783 59.7615 46.7219 59.7646 45.5654C59.7646 44.8819 59.7646 44.1986 59.7646 43.5183H50.6703C50.6703 45.0814 50.6562 46.6168 50.6764 48.1521C50.6857 48.8029 50.6842 49.4725 50.8325 50.0986C51.2099 51.6943 52.671 53.0826 54.0547 53.2341C54.0547 53.0394 54.0547 52.8491 54.0547 52.659C54.0547 50.7325 54.0517 48.8045 54.0563 46.878C54.0578 46.1189 54.4521 45.6365 55.089 45.5777C55.8467 45.5082 56.3631 46.0137 56.3661 46.8626C56.3739 48.9808 56.3693 51.099 56.3693 53.2604ZM52.4575 41.0754H57.9664C58.1257 39.7086 57.9185 38.515 56.6878 37.7482C55.7183 37.1436 54.6994 37.1544 53.7346 37.7482C52.5008 38.5089 52.2951 39.707 52.4575 41.0739V41.0754Z" fill="#407BFF"/>
</g>
</g>
<defs>
<clipPath id="clip0_201_6880">
<rect width="100" height="100" fill="white"/>
</clipPath>
</defs>
</svg>
