<svg width="100" height="100" viewBox="0 0 100 100" fill="none" xmlns="http://www.w3.org/2000/svg">
<g clip-path="url(#clip0_201_6866)">
<mask id="mask0_201_6866" style="mask-type:luminance" maskUnits="userSpaceOnUse" x="22" y="22" width="55" height="56">
<path d="M76.9169 22.2222H22.2222V77.7777H76.9169V22.2222Z" fill="white"/>
</mask>
<g mask="url(#mask0_201_6866)">
<path d="M76.9151 48.0366C76.9122 47.2148 76.5459 46.8441 75.7269 46.8355C75.5005 46.8326 75.2741 46.8326 75.0477 46.8326H74.1017C73.2697 42.3048 71.5783 38.3869 69.075 35.1843C66.664 32.1012 63.4223 29.5836 59.4309 27.6931H61.3676C62.4345 27.6931 63.6963 27.6931 64.9552 27.7104C65.0461 27.7104 65.2263 27.8618 65.3129 28.0088C65.8319 28.8913 66.723 29.4177 67.6965 29.4177C67.9229 29.4177 68.1493 29.3888 68.3712 29.3326C69.6143 29.014 70.4477 27.9454 70.442 26.6706C70.4376 25.4191 69.6143 24.3649 68.3958 24.0463C68.1651 23.9858 67.9286 23.9555 67.692 23.9555C66.6986 23.9555 65.7987 24.4933 65.3416 25.3599C65.1945 25.6412 65.0533 25.6858 64.7663 25.6858C62.932 25.6801 61.0979 25.6786 59.2637 25.6786H53.9341C53.1468 23.494 51.7177 22.3015 49.8013 22.2265C49.7349 22.2236 49.6672 22.2222 49.6009 22.2222C48.7329 22.2222 47.9252 22.4515 47.2029 22.9056C46.2137 23.5258 45.5445 24.4587 45.2115 25.6786H41.879C39.4147 25.6786 36.7744 25.6786 34.1745 25.6643C34.1009 25.6643 33.9337 25.5373 33.8515 25.3945C33.3251 24.4933 32.4311 23.954 31.4593 23.954C31.2256 23.954 30.9891 23.9843 30.7569 24.0448C29.5356 24.362 28.7108 25.4162 28.7036 26.6663C28.6977 27.9411 29.5284 29.0111 30.7729 29.3312C31.0036 29.3904 31.2386 29.4206 31.4693 29.4206C32.4586 29.4206 33.3468 28.8698 33.8429 27.9483C33.9509 27.7465 34.0505 27.6887 34.297 27.6887C34.9791 27.6945 35.6612 27.6959 36.3433 27.6959H38.5611L39.7118 27.6945C35.7116 29.5922 32.4642 32.1156 30.0504 35.203C27.547 38.4056 25.8599 42.3177 25.0337 46.8341H24.0776C23.8541 46.8326 23.6336 46.8341 23.4115 46.8341C22.6068 46.8427 22.2319 47.2076 22.2276 47.9833C22.2204 49.6762 22.2204 51.3287 22.2276 52.8948C22.2319 53.6359 22.6169 54.0166 23.3726 54.0267C23.6033 54.0295 23.834 54.0311 24.0617 54.0311C24.2449 54.0311 24.8563 54.0281 24.9804 54.0281C26.1758 59.8105 28.5463 64.5056 32.0244 67.9823C35.5026 71.459 40.1948 73.8252 45.9713 75.0163C45.9713 75.123 45.9743 75.2297 45.9758 75.3379C45.9815 75.6754 45.9887 76.0243 45.9627 76.3674C45.918 76.9804 46.117 77.4316 46.5712 77.7474L46.6087 77.7734H52.5281L52.5656 77.7474C53.0198 77.4302 53.2188 76.9788 53.1741 76.3674C53.1481 76.0113 53.1554 75.6566 53.1612 75.3148C53.1626 75.2138 53.164 75.1158 53.1655 75.0206C58.9508 73.8166 63.6459 71.443 67.1211 67.9679C70.5948 64.4927 72.9611 59.8033 74.1551 54.0281H75.0433C75.264 54.0281 75.4874 54.0281 75.7095 54.0281C76.5373 54.0209 76.9065 53.6533 76.9093 52.8386C76.9151 51.2999 76.9151 49.7281 76.9093 48.0352L76.9151 48.0366ZM74.8747 48.8759V51.9748H71.7715V48.8759H74.8747ZM53.1698 72.8273C53.1698 72.748 53.1698 72.6673 53.1698 72.588C53.1712 72.2952 53.1727 71.9938 53.1669 71.6954C53.1497 70.9715 52.7661 70.5865 52.058 70.5837C51.2361 70.5793 50.4156 70.5765 49.5937 70.5765C48.7718 70.5765 47.9252 70.5793 47.0918 70.5837C46.3823 70.588 45.9959 70.9687 45.9743 71.6867C45.9656 71.9463 45.9627 72.2073 45.9584 72.4669C45.9555 72.6038 45.9541 72.7394 45.9512 72.8763C41.1711 72.0977 36.9949 69.9809 33.5327 66.5879C30.134 63.254 27.6509 58.3426 27.1765 54.0311C27.2573 54.0311 27.3366 54.0311 27.4159 54.0311C27.5486 54.0311 27.6812 54.0324 27.8138 54.0324C27.9797 54.0324 28.1441 54.0324 28.3099 54.0267C29.0323 54.0094 29.4159 53.6244 29.4188 52.9134C29.4274 51.2681 29.4288 49.5969 29.4188 47.9473C29.4144 47.2379 29.0309 46.8529 28.3099 46.8341C28.072 46.8283 27.8326 46.8269 27.5947 46.8254C27.4404 46.8254 27.2861 46.8254 27.1318 46.8226C27.1288 46.8226 27.1274 46.8211 27.1245 46.8197C27.9148 42.0956 29.9812 37.9845 33.2688 34.5988C36.5552 31.2144 40.6072 29.0269 45.3152 28.0954C46.1531 30.1084 47.5836 31.1279 49.5677 31.1279H49.5937C51.572 31.1193 52.9938 30.0983 53.8216 28.0954C58.3494 28.9894 62.2745 31.0472 65.4887 34.2123C68.9755 37.6456 71.1716 41.8909 72.0195 46.8326C71.9244 46.8326 71.4672 46.8297 71.3361 46.8297C71.1687 46.8297 71.0044 46.8297 70.8399 46.8341C70.1131 46.8499 69.7281 47.232 69.7238 47.9386C69.7152 49.532 69.7137 51.1556 69.7238 52.9048C69.7281 53.6201 70.1088 54.008 70.8241 54.0252C70.9899 54.0295 71.1543 54.0311 71.3201 54.0311C71.4529 54.0311 71.5855 54.0311 71.7195 54.0295C71.7988 54.0295 71.8781 54.0295 71.9574 54.0295C70.8111 63.4112 62.6076 71.619 53.1698 72.8273ZM51.1165 72.6384V75.7373H48.0176V72.6384H51.1165ZM47.1279 26.6476C47.138 25.3441 48.2512 24.2424 49.5591 24.2424H49.5793C50.2368 24.2481 50.8526 24.5106 51.314 24.9806C51.774 25.4494 52.022 26.068 52.0133 26.7212C51.9974 28.0493 50.9001 29.1279 49.5605 29.1279C48.9116 29.1249 48.3002 28.8683 47.8402 28.4026C47.3744 27.9324 47.122 27.308 47.1265 26.6462L47.1279 26.6476ZM27.3712 48.8917V51.9906H24.2709V48.8917H27.3712ZM67.708 25.9713V25.8272L67.7166 25.9713C68.1045 25.9756 68.4202 26.2958 68.4218 26.6851C68.4218 27.073 68.1073 27.3945 67.7051 27.4018C67.5133 27.4018 67.3316 27.324 67.1931 27.1812C67.0562 27.0398 66.9841 26.8568 66.9898 26.6649C67.0013 26.2813 67.323 25.9699 67.7065 25.9699L67.708 25.9713ZM31.4376 25.9699V25.8256L31.4405 25.9699C31.8226 25.9713 32.1499 26.2958 32.1543 26.6765C32.1572 26.8654 32.0822 27.047 31.9437 27.1855C31.8052 27.3254 31.6265 27.4018 31.4361 27.4018H31.413C31.0309 27.3888 30.7151 27.0543 30.7223 26.6722C30.7295 26.2915 31.0569 25.9699 31.4376 25.9699Z" fill="#5D6DFD"/>
<path d="M54.3948 38.2653C53.6941 36.6272 52.9917 34.989 52.2924 33.351C52.0674 32.8247 51.7041 32.581 51.1489 32.581H51.1171C50.6313 32.5896 50.0645 32.5983 49.5109 32.5983C49.0148 32.5983 48.5706 32.5911 48.1568 32.5767C48.1309 32.5767 48.1049 32.5767 48.0789 32.5767C47.4488 32.5767 47.0507 32.8535 46.7868 33.4736C44.3903 39.1031 41.8567 45.0182 39.2553 51.0543C39.0492 51.533 39.0564 51.9642 39.277 52.4531C40.4306 55.001 41.3766 57.1279 42.2503 59.1468C42.3499 59.3775 42.3671 59.7105 42.2923 59.9557C41.985 60.955 41.6461 61.9629 41.3174 62.9392C41.1992 63.291 41.0795 63.6429 40.9627 63.9961C40.7652 64.5903 40.7666 64.9983 40.9699 65.281C41.1703 65.5593 41.5481 65.689 42.1581 65.689C43.2541 65.689 53.7806 65.689 53.7806 65.689C54.8721 65.689 55.9623 65.689 57.0538 65.689C57.5931 65.689 57.9667 65.5492 58.1642 65.2737C58.3632 64.9969 58.3775 64.5946 58.2046 64.0754C58.0648 63.6544 57.922 63.2347 57.7806 62.8151C57.4677 61.8908 57.1432 60.9349 56.852 59.9874C56.7713 59.7279 56.79 59.3732 56.8952 59.1281C57.3596 58.0508 57.8441 56.9593 58.3127 55.9037C58.826 54.7472 59.3567 53.5518 59.8628 52.3694C59.9999 52.0522 60.0589 51.5446 59.9089 51.1912C58.082 46.8783 56.2074 42.5004 54.3948 38.2667V38.2653ZM48.5432 34.6503V46.9389C47.1646 47.3224 46.1654 48.1228 45.5713 49.3167C45.0954 50.2728 44.9829 51.2936 45.2339 52.3535C45.701 54.3247 47.5353 55.7537 49.5945 55.7537C49.6679 55.7537 49.7416 55.7524 49.8166 55.7479C51.9607 55.6442 53.72 53.9874 53.9998 51.8099C54.2348 49.9786 53.2686 47.6901 50.6038 46.9374V34.6862C50.6702 34.7699 50.7307 34.8521 50.7668 34.9372C52.1943 38.2494 53.6392 41.6193 55.0379 44.8826C55.3148 45.5286 55.5917 46.1761 55.8685 46.8235C56.4986 48.2972 57.1504 49.8214 57.7993 51.3168C57.9306 51.621 57.9335 51.8358 57.8095 52.1099C56.9731 53.9469 56.092 55.9268 55.1143 58.1633C54.9991 58.4272 54.8938 58.4993 54.6168 58.4993C52.9456 58.4921 51.2441 58.4878 49.5599 58.4878C47.8756 58.4878 46.2043 58.4921 44.5216 58.4979C44.2475 58.4979 44.1409 58.4257 44.027 58.1662C43.6361 57.2722 43.2396 56.381 42.8431 55.4885C42.3441 54.3651 41.8264 53.2029 41.3318 52.0565C41.2496 51.8676 41.2496 51.5676 41.3318 51.3744C43.6534 45.9165 45.9852 40.4844 48.3688 34.9386C48.4106 34.8406 48.4754 34.7483 48.5461 34.6503H48.5432ZM43.3809 63.1136C43.6678 62.2426 43.9375 61.4208 44.2374 60.5917C44.2821 60.5585 44.4566 60.5124 44.6109 60.5124C46.5923 60.5065 48.5735 60.5051 50.5563 60.5051H53.88C54.402 60.5051 54.6645 60.5051 54.8086 60.6075C54.9528 60.7099 55.0393 60.9679 55.1966 61.438C55.3739 61.9672 55.5499 62.4965 55.7329 63.0474L55.9349 63.6558H43.2021C43.2627 63.4742 43.3218 63.2939 43.3809 63.1136ZM51.2945 49.5719C51.756 50.0349 52.0098 50.6476 52.0098 51.2981C52.0098 52.6318 50.921 53.7262 49.5873 53.7364H49.5685C48.2245 53.7364 47.1273 52.6376 47.1228 51.2865C47.1214 50.6462 47.3738 50.0362 47.8352 49.5719C48.2967 49.1076 48.9038 48.851 49.5439 48.8494L49.5498 48.7053V48.8494C50.2088 48.8494 50.8302 49.1061 51.2945 49.5719Z" fill="#5D6DFD"/>
</g>
</g>
<defs>
<clipPath id="clip0_201_6866">
<rect width="100" height="100" fill="white"/>
</clipPath>
</defs>
</svg>
