<svg width="100" height="100" viewBox="0 0 100 100" fill="none" xmlns="http://www.w3.org/2000/svg">
<g clip-path="url(#clip0_201_6894)">
<mask id="mask0_201_6894" style="mask-type:luminance" maskUnits="userSpaceOnUse" x="22" y="22" width="56" height="56">
<path d="M77.7777 22.2222H22.2222V77.7705H77.7777V22.2222Z" fill="white"/>
</mask>
<g mask="url(#mask0_201_6894)">
<path d="M22.2222 56.833C22.283 56.7071 22.3497 56.5839 22.4019 56.4564C22.8454 55.3694 23.6394 54.755 24.8176 54.6536C24.9798 54.6392 25.1422 54.6376 25.3045 54.6362C26.6116 54.6275 27.0927 54.2493 27.2869 52.9494C27.3274 52.6755 27.1608 52.3248 26.9913 52.0771C26.7594 51.7379 26.4131 51.4815 26.1508 51.1612C25.3451 50.1758 25.2843 48.7107 26.129 47.7644C27.1015 46.6747 28.1361 45.6298 29.2244 44.656C30.2026 43.7807 31.6488 43.843 32.6647 44.6807C32.9704 44.9328 33.2443 45.224 33.5283 45.5024C33.8587 45.8269 34.237 45.9182 34.6702 45.7458C34.9383 45.64 35.2065 45.5312 35.4702 45.4154C35.8919 45.2298 36.1136 44.9096 36.1106 44.4401C36.1079 44.0967 36.1005 43.7518 36.1194 43.4097C36.2049 41.9346 37.2918 40.8201 38.767 40.7724C40.0856 40.7289 41.4073 40.7289 42.7245 40.7724C44.1795 40.8217 45.2548 41.9215 45.3445 43.3692C45.3533 43.5142 45.3576 43.6576 45.3591 43.8025C45.3706 45.1444 45.688 45.5573 47.0313 45.795C47.3024 45.8429 47.6588 45.6893 47.9052 45.5211C48.2588 45.2805 48.5283 44.9183 48.8674 44.6503C49.9022 43.8315 51.3324 43.8126 52.3077 44.6967C53.3511 45.6414 54.3495 46.6428 55.2987 47.6833C56.1958 48.6672 56.1711 50.1294 55.3262 51.1669C55.0654 51.4887 54.7611 51.7757 54.4727 52.0742C54.164 52.3929 54.0887 52.7582 54.2452 53.1711C54.322 53.374 54.4249 53.5668 54.4901 53.7725C54.6973 54.4247 55.148 54.6565 55.8131 54.6448C56.3131 54.6362 56.8348 54.6551 57.3116 54.7855C58.4187 55.0883 59.1854 56.0636 59.2201 57.2143C59.2606 58.5504 59.2679 59.8893 59.2244 61.2254C59.1766 62.7007 58.0637 63.7846 56.587 63.876C56.4609 63.8832 56.3334 63.8832 56.2073 63.8832C54.8394 63.8904 54.4669 64.1643 54.2047 65.5323C54.1511 65.8135 54.3205 66.1887 54.4944 66.4511C54.7205 66.7915 55.0741 67.0451 55.3336 67.3669C56.1305 68.3567 56.2044 69.7783 55.3712 70.7201C54.3799 71.8404 53.3105 72.9011 52.1933 73.8982C51.2874 74.7053 49.834 74.6444 48.8819 73.8865C48.5443 73.6171 48.2429 73.3011 47.9298 73.0011C47.5966 72.6808 47.2256 72.5808 46.7908 72.7736C46.543 72.8837 46.2952 72.991 46.0416 73.088C45.5779 73.2648 45.3677 73.6097 45.3591 74.0908C45.3533 74.3807 45.3634 74.6692 45.3533 74.9589C45.3055 76.2936 44.6388 77.1993 43.384 77.6471C43.3043 77.6761 43.2331 77.7282 43.1593 77.7703H38.3858C38.3062 77.7326 38.2279 77.6876 38.1452 77.6601C36.8584 77.2412 36.1368 76.2704 36.1093 74.9125C36.1034 74.6053 36.1672 74.2822 36.0874 73.9967C36.0079 73.7083 35.8543 73.3619 35.6223 73.2098C34.4297 72.4272 34.063 72.4853 33.0516 73.4765C33.0124 73.5142 32.9762 73.5533 32.9356 73.591C31.7024 74.7415 30.1301 74.7647 28.907 73.6112C28.0405 72.7939 27.2087 71.9375 26.374 71.0868C25.6508 70.3507 25.3161 69.4362 25.6262 68.461C25.8247 67.8408 26.2652 67.2625 26.7044 66.7611C27.3999 65.9655 27.4594 65.8887 27.0449 64.9019C27.0029 64.8019 26.9565 64.7048 26.9188 64.6033C26.7348 64.0976 26.374 63.8672 25.8377 63.8846C25.4958 63.8947 25.1494 63.9035 24.8088 63.8701C23.4119 63.7354 22.6323 62.8789 22.2222 61.6065C22.2222 60.0154 22.2222 58.4243 22.2222 56.833ZM54.1945 49.4846C54.0263 49.1787 53.9481 48.9237 53.7815 48.7512C52.9526 47.8933 52.112 47.0457 51.2527 46.2182C50.8006 45.7835 50.3311 45.8023 49.8543 46.2269C49.5718 46.479 49.3037 46.75 49.0341 47.0167C47.4372 48.6021 43.878 47.0153 43.6056 45.1922C43.5606 44.8893 43.5318 44.5836 43.5115 44.2778C43.4955 44.043 43.5158 43.8068 43.5043 43.5735C43.4709 42.9648 43.1593 42.6214 42.5594 42.6112C41.3479 42.591 40.1363 42.5925 38.9249 42.6112C38.3337 42.62 38.0076 42.9678 37.9641 43.5692C37.9481 43.7851 37.9598 44.0025 37.9583 44.2198C37.954 46.308 35.9426 47.9832 33.8602 47.663C32.9516 47.5239 32.3473 46.9543 31.7444 46.3443C31.1576 45.753 30.6938 45.7486 30.1113 46.3196C29.3244 47.0921 28.5433 47.8717 27.7738 48.6614C27.2522 49.1961 27.2637 49.6729 27.7811 50.2207C28.0173 50.47 28.2709 50.7033 28.4955 50.9626C28.9766 51.5192 29.2751 52.1828 29.1548 52.9073C28.7838 55.1536 27.7854 56.6215 25.4943 56.4897C25.3683 56.4825 25.2408 56.4853 25.1147 56.4897C24.4524 56.5172 24.0916 56.8375 24.0799 57.4867C24.0597 58.6619 24.0611 59.8372 24.0799 61.0125C24.0901 61.663 24.4495 62.0022 25.1016 62.034C25.4262 62.05 25.7537 62.0268 26.0783 62.0428C27.1362 62.095 27.9477 62.5732 28.4491 63.5079C28.6868 63.9512 28.8868 64.4222 29.0374 64.9019C29.3476 65.8903 29.1462 66.796 28.4665 67.5814C28.2072 67.8814 27.9013 68.1436 27.6477 68.4465C27.3029 68.858 27.2941 69.3333 27.6651 69.7189C28.5172 70.6043 29.3868 71.4737 30.2736 72.3258C30.6736 72.7098 31.159 72.6896 31.5894 72.32C31.8358 72.1085 32.0691 71.8794 32.2865 71.6375C33.9341 69.8087 37.6019 71.4955 37.8555 73.2707C37.9236 73.7504 37.9454 74.2387 37.9583 74.7242C37.983 75.5762 38.3004 75.9154 39.1423 75.9211C40.0277 75.9283 40.9145 75.9226 41.7999 75.9226C43.368 75.9226 43.4998 75.7936 43.5129 74.2372C43.5302 72.1346 45.7736 70.4115 47.8386 70.8912C48.6661 71.0839 49.2109 71.6505 49.779 72.2098C50.2818 72.7055 50.7847 72.7475 51.2556 72.2954C52.1165 71.4694 52.9598 70.6246 53.7858 69.7637C54.2249 69.3058 54.2002 68.8421 53.7743 68.3668C53.5684 68.1378 53.3526 67.919 53.1249 67.7132C51.3005 66.0626 52.9816 62.4108 54.7597 62.1398C55.0437 62.0964 55.3306 62.0587 55.6176 62.0414C55.9059 62.0239 56.1972 62.0529 56.4841 62.0283C57.0479 61.9775 57.384 61.6443 57.3927 61.0762C57.4101 59.8647 57.4116 58.6532 57.3927 57.4432C57.3826 56.8418 57.042 56.5287 56.4348 56.494C56.219 56.481 56.0016 56.4897 55.7841 56.4897C53.6974 56.4796 52.0149 54.4551 52.344 52.3785C52.4773 51.5365 52.9772 50.9496 53.5468 50.3758C53.8018 50.1193 53.9829 49.7873 54.2002 49.486L54.1945 49.4846Z" fill="#5D6DFD"/>
<path d="M52.8019 22.2281C53.6699 22.2281 54.538 22.2194 55.406 22.2281C57.1362 22.247 58.297 23.3831 58.3376 25.1119C58.3578 25.98 58.3594 26.848 58.3362 27.7145C58.3216 28.2826 58.5608 28.6304 59.081 28.8347C59.836 29.1318 60.5881 29.4419 61.3285 29.7709C61.8227 29.9912 62.2299 29.9201 62.6067 29.5361C63.2009 28.929 63.8037 28.329 64.4095 27.7334C65.7252 26.4437 67.3165 26.4365 68.6323 27.7291C69.8567 28.9333 71.0741 30.1462 72.2798 31.3693C73.5709 32.6793 73.5608 34.2748 72.2681 35.5906C71.6856 36.1833 71.103 36.7774 70.5031 37.3543C70.0813 37.7599 70.009 38.1845 70.2553 38.7208C70.5872 39.4409 70.8755 40.1815 71.1653 40.9205C71.3595 41.4162 71.6827 41.6712 72.2334 41.6595C73.0826 41.6422 73.9331 41.648 74.7824 41.6568C76.6098 41.6755 77.7633 42.8276 77.772 44.6491C77.7792 46.349 77.7777 48.0488 77.772 49.7472C77.7662 51.6094 76.6402 52.7469 74.7694 52.7773C73.9563 52.7904 73.142 52.7962 72.329 52.7745C71.7233 52.7586 71.3523 53.0005 71.1408 53.5802C70.8755 54.3091 70.5727 55.025 70.2451 55.7279C69.9944 56.2669 70.0872 56.6915 70.5031 57.0944C71.1001 57.6726 71.6856 58.2652 72.2681 58.858C73.5565 60.1723 73.5594 61.7663 72.2623 63.0793C71.0552 64.3009 69.8408 65.5152 68.6163 66.7209C67.3295 67.989 65.731 67.9933 64.4341 66.7311C63.5009 65.824 62.5849 64.898 61.6677 63.9734C61.1648 63.4662 61.1199 62.888 61.5301 62.4968C61.9315 62.1141 62.4662 62.1634 62.9647 62.6547C63.853 63.53 64.7312 64.4183 65.6152 65.2965C66.302 65.979 66.7338 65.9834 67.4063 65.3125C68.5728 64.1516 69.7365 62.988 70.8973 61.8229C71.5334 61.1838 71.5334 60.7491 70.9059 60.1115C70.3219 59.5187 69.7263 58.9377 69.1452 58.3436C68.1758 57.3509 67.9931 56.3002 68.5395 55.0177C68.851 54.2873 69.1524 53.5527 69.4481 52.8165C69.938 51.5963 70.8277 50.9486 72.1478 50.9283C73.0159 50.9138 73.884 50.9326 74.752 50.9195C75.5997 50.9065 75.9199 50.5733 75.9228 49.7168C75.9272 48.0531 75.9272 46.3895 75.9228 44.7259C75.9199 43.8493 75.5866 43.5159 74.707 43.5073C73.8578 43.5 73.0072 43.5116 72.158 43.5029C70.861 43.4898 69.9712 42.8726 69.4771 41.6755C69.154 40.8916 68.8351 40.1061 68.5033 39.3265C67.9931 38.128 68.2077 37.0658 69.1033 36.1398C69.706 35.5152 70.3321 34.9138 70.9392 34.2937C71.5233 33.6966 71.5291 33.2488 70.9451 32.659C69.7495 31.4519 68.5467 30.2491 67.3397 29.0536C66.7469 28.4666 66.302 28.4695 65.7049 29.0506C65.1094 29.6318 64.5298 30.2273 63.937 30.8113C62.9183 31.8156 61.8706 32.0069 60.5708 31.4504C59.8417 31.1375 59.1056 30.8404 58.3695 30.5418C57.1159 30.0318 56.5044 29.1477 56.4885 27.7855C56.4784 26.9363 56.4942 26.0858 56.4841 25.2365C56.4726 24.4222 56.1305 24.0758 55.3234 24.0729C53.6235 24.0656 51.9237 24.0656 50.2238 24.0729C49.4167 24.0758 49.0848 24.4134 49.0733 25.2394C49.0602 26.0712 49.0791 26.903 49.0674 27.7348C49.0458 29.1941 48.4342 30.0477 47.0778 30.5809C46.3387 30.8708 45.6098 31.1838 44.878 31.4954C43.7013 31.9954 42.6492 31.7954 41.7305 30.9244C41.0885 30.3143 40.477 29.6723 39.8437 29.0536C39.2495 28.4725 38.8003 28.4695 38.2105 29.0549C37.0034 30.252 35.8006 31.4533 34.6051 32.6605C34.0298 33.2401 34.0341 33.7052 34.6138 34.2965C35.476 35.1733 36.3513 36.0369 37.2178 36.9094C37.357 37.05 37.499 37.1948 37.6005 37.3629C37.8395 37.757 37.7613 38.1411 37.4497 38.4512C37.1367 38.7627 36.7426 38.8309 36.3615 38.5831C36.1223 38.428 35.918 38.2149 35.7137 38.0122C34.892 37.1977 34.0674 36.3848 33.2602 35.5558C32.0024 34.2631 32.0038 32.659 33.2719 31.3736C34.4776 30.1491 35.6934 28.9362 36.9165 27.7291C38.2278 26.435 39.8277 26.4393 41.1392 27.7291C41.7334 28.3116 42.3247 28.8956 42.9042 29.4926C43.3072 29.9086 43.7331 30.0027 44.2708 29.7491C44.907 29.4491 45.5605 29.1869 46.2155 28.9304C47.1097 28.5797 47.2083 28.4493 47.2155 27.5015C47.2227 26.5987 47.1835 25.6901 47.2603 24.7916C47.3894 23.2686 48.5009 22.2658 50.0355 22.2325C50.9572 22.2122 51.8802 22.2281 52.8019 22.2281Z" fill="#5D6DFD"/>
<path d="M52.8122 35.208C58.629 35.2544 63.5532 39.2931 64.5835 45.0086C65.3096 49.0313 64.2212 52.5876 61.4114 55.5887C60.9708 56.0597 60.4303 56.1234 60.026 55.7727C59.5999 55.4031 59.5897 54.838 60.0622 54.3425C61.536 52.7962 62.4881 50.9906 62.859 48.8836C63.614 44.6043 61.5229 40.3452 57.6044 38.1861C53.9179 36.1543 49.0965 36.7673 45.9621 39.6641C45.8157 39.7988 45.6722 39.938 45.5114 40.054C45.0767 40.3669 44.5637 40.3206 44.2435 39.9554C43.9232 39.5887 43.9203 39.0468 44.3174 38.6875C44.9057 38.1555 45.5057 37.6237 46.1635 37.1876C48.1721 35.8572 50.395 35.1979 52.8107 35.2095L52.8122 35.208Z" fill="#407BFF"/>
<path d="M40.7408 50.9365C45.397 50.9857 49.1213 54.7129 49.0589 59.2936C48.9865 64.5409 45.1897 67.503 40.7351 67.5595C36.0081 67.6204 32.3635 63.7873 32.4171 59.0066C32.4663 54.5897 36.2833 50.8886 40.7408 50.9365ZM47.1968 59.2327C47.1795 55.633 44.271 52.7522 40.6944 52.7898C37.0644 52.829 34.2386 55.7157 34.2589 59.3632C34.2792 62.8947 37.2021 65.7423 40.7931 65.7293C44.3363 65.7162 47.2142 62.7976 47.1968 59.2327Z" fill="#407BFF"/>
</g>
</g>
<defs>
<clipPath id="clip0_201_6894">
<rect width="100" height="100" fill="white"/>
</clipPath>
</defs>
</svg>
