<svg width="100" height="100" viewBox="0 0 100 100" fill="none" xmlns="http://www.w3.org/2000/svg">
<g clip-path="url(#clip0_201_6873)">
<mask id="mask0_201_6873" style="mask-type:luminance" maskUnits="userSpaceOnUse" x="22" y="23" width="56" height="53">
<path d="M77.7777 23.6113H22.2222V75.6826H77.7777V23.6113Z" fill="white"/>
</mask>
<g mask="url(#mask0_201_6873)">
<path d="M22.2236 25.3448C22.757 23.9897 23.7933 23.6071 25.1861 23.6114C35.5476 23.6433 45.9091 23.6287 56.2706 23.6287C58.1374 23.6287 58.9824 24.4753 58.9824 26.3478C58.9824 30.0915 58.9824 33.8353 58.9824 37.5789C58.9824 37.7934 58.9824 38.0094 58.9824 38.2891C59.223 38.3007 59.4302 38.3196 59.6374 38.3196C61.8986 38.3209 64.158 38.3196 66.4191 38.3225C68.1641 38.3254 69.0526 39.2139 69.054 40.9632C69.0569 45.2853 69.054 49.6086 69.054 53.9307C69.054 54.1422 69.054 54.3539 69.054 54.6278C69.3163 54.6278 69.5105 54.6278 69.7048 54.6278C71.5672 54.6278 73.4297 54.6219 75.292 54.6293C76.8458 54.6365 77.7763 55.5815 77.7777 57.1439C77.7806 62.479 77.7806 67.8141 77.7777 73.1491C77.7777 74.7202 76.8197 75.6754 75.2355 75.6783C72.0716 75.6841 68.9062 75.6828 65.7422 75.6783C64.1508 75.6754 63.2131 74.7421 63.2058 73.1521C63.1986 71.3983 63.2044 69.6432 63.2044 67.8894C63.2044 67.6937 63.2044 67.4966 63.2044 67.2547H55.4662C55.7677 68.2634 56.0561 69.2591 56.3765 70.2432C56.4054 70.333 56.6373 70.394 56.7779 70.4026C57.3359 70.4359 57.9041 70.3911 58.4534 70.4708C59.7259 70.6562 60.6086 71.6926 60.6448 72.9811C60.6579 73.4144 60.6579 73.8493 60.6448 74.2826C60.6216 75.0812 60.1331 75.5943 59.3374 75.6711C59.1766 75.6871 59.0129 75.6798 58.849 75.6798C52.0138 75.6798 45.1787 75.6798 38.3434 75.6798C36.9723 75.6798 36.5274 75.2378 36.5347 73.8623C36.5376 73.3941 36.5099 72.9115 36.6027 72.4593C36.8434 71.2969 37.8173 70.5084 39.0348 70.4172C39.1436 70.4084 39.2522 70.4114 39.3594 70.4114C40.3093 70.4046 40.9219 69.9403 41.1972 69.0184C41.3668 68.4489 41.5306 67.8779 41.7262 67.2097C41.4813 67.2097 41.2958 67.2097 41.1088 67.2097C37.6738 67.2097 34.2374 67.2097 30.8024 67.2097C29.0298 67.2097 28.1341 66.3154 28.1327 64.5414C28.1298 61.3948 28.1327 58.2483 28.1327 55.1003C28.1327 54.8858 28.1327 54.6712 28.1327 54.3973C27.9181 54.3829 27.7472 54.3611 27.5747 54.3597C26.7254 54.3568 25.8716 54.3147 25.0252 54.3669C23.6381 54.4525 22.6888 53.9147 22.2222 52.5841L22.2236 25.3448ZM23.8512 32.8468V33.4859C23.8512 39.5443 23.8512 45.6026 23.8512 51.6609C23.8512 52.619 23.957 52.7291 24.9036 52.7291C35.3723 52.7291 45.8424 52.7291 56.3112 52.7291C57.2112 52.7291 57.3548 52.5857 57.3548 51.6986C57.3548 45.6229 57.3548 39.5457 57.3548 33.47V32.8468C57.0648 32.8468 56.8504 32.8468 56.6373 32.8468C52.0631 32.8468 47.4874 32.8468 42.9133 32.8468C42.7322 32.8468 42.5495 32.8569 42.3712 32.8351C41.9552 32.783 41.6611 32.5018 41.6958 32.1221C41.7219 31.8365 41.9568 31.5148 42.1901 31.3221C42.3524 31.1887 42.6727 31.2234 42.922 31.2234C47.5149 31.2191 52.108 31.2205 56.6997 31.2205H57.3533C57.3533 29.5016 57.3533 27.8754 57.3533 26.2507C57.3533 25.4361 57.1779 25.2593 56.3706 25.2579C53.5502 25.2564 50.7297 25.2579 47.9077 25.2579C40.2233 25.2579 32.5387 25.2579 24.8543 25.2579C24.0063 25.2579 23.8498 25.4158 23.8498 26.2709C23.8498 27.4653 23.8498 28.658 23.8498 29.8523C23.8498 30.2973 23.8498 30.7423 23.8498 31.2205C24.1368 31.2205 24.3527 31.2205 24.5673 31.2205C29.1415 31.2205 33.717 31.2205 38.2912 31.2234C38.5231 31.2234 38.7666 31.2293 38.9855 31.2973C39.3797 31.4221 39.5566 31.7293 39.5116 32.138C39.4652 32.5496 39.2188 32.7887 38.8072 32.838C38.629 32.8598 38.4463 32.8482 38.2652 32.8482C33.6909 32.8482 29.1154 32.8482 24.5412 32.8482C24.3295 32.8482 24.118 32.8468 23.8512 32.8468ZM29.7965 54.3568V61.4253H63.2029C63.2029 61.1919 63.2029 60.9978 63.2029 60.8036C63.2029 59.5557 63.1927 58.3091 63.2058 57.0612C63.2204 55.5597 64.1494 54.6451 65.6552 54.6293C66.2263 54.6234 66.7973 54.6293 67.3988 54.6293C67.4104 54.38 67.4263 54.2032 67.4263 54.0264C67.4263 49.6869 67.4279 45.349 67.4263 41.0096C67.4263 40.1022 67.2713 39.953 66.3379 39.9515C64.0972 39.9515 61.8551 39.9515 59.6143 39.9515C59.4215 39.9515 59.2288 39.9689 58.9824 39.9805C58.9824 40.2341 58.9824 40.4472 58.9824 40.6603C58.9824 44.3851 58.978 48.1086 58.9852 51.8334C58.9868 52.6553 58.762 53.3611 58.0983 53.8915C57.5679 54.3162 56.949 54.364 56.3054 54.3626C47.7194 54.3582 39.1333 54.3597 30.5473 54.3597C30.3154 54.3597 30.082 54.3597 29.798 54.3597L29.7965 54.3568ZM64.8305 65.1183C64.8305 67.759 64.8291 70.3997 64.8305 73.039C64.8305 73.8421 65.0306 74.0493 65.8074 74.0507C68.9352 74.0536 72.0644 74.0536 75.192 74.0507C75.9298 74.0507 76.1487 73.8203 76.1487 73.0666C76.1487 67.7851 76.1487 62.5051 76.1487 57.2236C76.1487 56.4569 75.953 56.2554 75.1936 56.2554C72.0658 56.2525 68.9366 56.2525 65.8088 56.2554C65.0001 56.2554 64.832 56.4279 64.8305 57.2511C64.8277 59.873 64.8305 62.4964 64.8305 65.1183ZM29.7604 63.1152C29.7604 63.5659 29.7604 63.9603 29.7604 64.3559C29.7604 65.4575 29.8806 65.5807 30.9604 65.5807C36.0593 65.5807 41.1566 65.5807 46.2555 65.5807C46.4541 65.5807 46.657 65.569 46.8512 65.6023C47.257 65.6719 47.4861 65.93 47.5106 66.343C47.544 66.8676 47.1933 67.1953 46.5599 67.2039C45.6555 67.2169 44.7511 67.1937 43.8481 67.2198C43.6829 67.2241 43.4191 67.3575 43.3741 67.4894C43.0583 68.4272 42.7887 69.3808 42.4915 70.3679H54.6849C54.4415 69.5418 54.1763 68.7736 53.998 67.9851C53.8604 67.3779 53.5994 67.1329 52.9429 67.1908C52.1356 67.2619 51.3167 67.2241 50.5036 67.1982C49.9529 67.1807 49.6383 66.8314 49.6615 66.3415C49.6833 65.8748 49.9905 65.6066 50.5384 65.5821C50.7008 65.5748 50.863 65.5791 51.0268 65.5791C54.859 65.5791 58.6924 65.5791 62.5247 65.5791H63.1681V63.1139L29.7604 63.1152ZM58.9795 74.029C59.1606 72.3534 58.8809 72.0375 57.2692 72.0375C51.392 72.0375 45.5149 72.0375 39.6391 72.0375C39.4233 72.0375 39.2015 72.0303 38.9913 72.068C38.5594 72.1448 38.2506 72.4071 38.1912 72.8419C38.1391 73.2246 38.1811 73.6203 38.1811 74.029H58.9795Z" fill="#5D6DFD"/>
<path d="M37.4311 42.8005C37.4311 44.7151 37.434 46.6311 37.4311 48.5458C37.4283 49.6575 36.9196 50.1719 35.8093 50.1748C33.2265 50.1807 30.6423 50.1791 28.0596 50.1748C26.9407 50.1734 26.4218 49.6661 26.4204 48.5616C26.4146 44.7136 26.4146 40.8641 26.4204 37.0161C26.4218 35.9247 26.9262 35.4305 28.0161 35.429C30.6351 35.4261 33.2555 35.4247 35.8746 35.429C36.9239 35.4305 37.4268 35.9378 37.4297 36.9987C37.4355 38.9322 37.4311 40.8655 37.4311 42.799V42.8005ZM28.0814 37.0812V48.5051H35.7701V37.0812H28.0814Z" fill="#5D6DFD"/>
<path d="M47.3696 41.7929C45.4899 41.7929 43.61 41.7958 41.7301 41.7929C40.4721 41.7899 40.0097 41.3159 40.0083 40.0463C40.0083 39.0158 40.0039 37.9854 40.0083 36.9548C40.0142 35.9722 40.5373 35.433 41.504 35.4316C45.426 35.4258 49.348 35.4272 53.27 35.4316C54.2454 35.4316 54.7686 35.9663 54.7744 36.9462C54.7817 38.0491 54.7817 39.152 54.7744 40.2536C54.7686 41.2522 54.2497 41.7798 53.2221 41.787C51.2699 41.8015 49.319 41.7913 47.3667 41.7913L47.3696 41.7929ZM41.6779 37.0824V40.1173H53.1207V37.0824H41.6779Z" fill="#407BFF"/>
<path d="M47.3635 46.3028C45.2316 46.3028 43.101 46.2984 40.9689 46.3057C40.4718 46.3071 40.1079 46.1332 40.0254 45.6172C39.9514 45.1607 40.1804 44.8447 40.6225 44.7216C40.8095 44.6693 41.0153 44.6765 41.2124 44.6765C45.3316 44.6736 49.4506 44.6752 53.5682 44.6752C53.677 44.6752 53.7856 44.6707 53.8929 44.6781C54.4393 44.7157 54.777 45.0375 54.7711 45.5114C54.7639 45.9839 54.422 46.2984 53.8653 46.2999C51.6971 46.3057 49.5317 46.3028 47.3635 46.3028Z" fill="#407BFF"/>
<path d="M31.5047 29.0481C30.1872 29.0481 28.8683 29.051 27.5508 29.0481C26.8842 29.0467 26.5494 28.7801 26.5407 28.2612C26.5319 27.7409 26.8812 27.4249 27.5146 27.4234C30.1685 27.4191 32.8236 27.422 35.4775 27.4292C36.1151 27.4308 36.4674 27.7438 36.463 28.2583C36.4572 28.7758 36.1196 29.051 35.46 29.0526C34.1426 29.0569 32.8236 29.0526 31.5062 29.0526V29.0467L31.5047 29.0481Z" fill="#407BFF"/>
<path d="M50.6323 48.5483C51.699 48.5483 52.7642 48.5425 53.8311 48.5512C54.4252 48.5555 54.7774 48.8672 54.7745 49.3584C54.7716 49.8483 54.4195 50.1701 53.8238 50.173C51.6729 50.1818 49.5236 50.1818 47.3727 50.173C46.7872 50.1701 46.4248 49.8354 46.4248 49.3512C46.4248 48.8701 46.7901 48.5555 47.3799 48.5512C48.464 48.544 49.5481 48.5497 50.6323 48.5497V48.5483Z" fill="#407BFF"/>
<path d="M41.8111 48.5531C42.1532 48.5531 42.4967 48.5385 42.8387 48.556C43.2996 48.5792 43.5793 48.8285 43.6142 49.2936C43.6489 49.7603 43.404 50.1024 42.9575 50.1357C42.2053 50.1922 41.4444 50.1922 40.6922 50.1386C40.2487 50.1068 39.9878 49.7733 40.0197 49.3082C40.0501 48.8501 40.324 48.5849 40.7864 48.5589C41.1271 48.54 41.4706 48.5545 41.814 48.5545L41.8111 48.5531Z" fill="#407BFF"/>
<path d="M45.7904 29.0484C45.3483 29.0412 45.0078 28.6976 45.0035 28.2556C44.999 27.8005 45.3787 27.4193 45.8253 27.4309C46.2469 27.4425 46.6151 27.815 46.621 28.2368C46.6267 28.6861 46.2485 29.0556 45.7904 29.0484Z" fill="#407BFF"/>
<path d="M50.6415 28.2727C50.6269 28.7264 50.24 29.0743 49.7776 29.0466C49.3427 29.0221 49.008 28.6554 49.024 28.2205C49.0398 27.7915 49.408 27.4307 49.8298 27.4307C50.2733 27.4307 50.6559 27.8264 50.6415 28.2727Z" fill="#407BFF"/>
<path d="M53.8388 27.4323C54.262 27.4222 54.6388 27.7744 54.662 28.2035C54.6867 28.66 54.3302 29.0412 53.8707 29.0498C53.4316 29.0571 53.0677 28.7237 53.0445 28.2919C53.0213 27.8469 53.3938 27.444 53.8388 27.4339V27.4323Z" fill="#407BFF"/>
<path d="M71.2854 71.5784C71.2969 72.0378 70.9404 72.4119 70.4853 72.4191C70.0375 72.4263 69.6504 72.0466 69.6504 71.6031C69.6504 71.1741 69.9954 70.8218 70.4359 70.8045C70.9129 70.7856 71.2751 71.1146 71.2868 71.5799L71.2854 71.5784Z" fill="#407BFF"/>
</g>
</g>
<defs>
<clipPath id="clip0_201_6873">
<rect width="100" height="100" fill="white"/>
</clipPath>
</defs>
</svg>
