<svg width="75" height="15" viewBox="0 0 75 15" fill="none" xmlns="http://www.w3.org/2000/svg">
<path d="M6.54894 2.92705C6.8483 2.00574 8.1517 2.00574 8.45106 2.92705L8.95934 4.49139C9.09321 4.90341 9.47717 5.18237 9.9104 5.18237H11.5552C12.524 5.18237 12.9267 6.42199 12.143 6.99139L10.8123 7.9582C10.4618 8.21285 10.3152 8.66422 10.449 9.07624L10.9573 10.6406C11.2567 11.5619 10.2022 12.328 9.41849 11.7586L8.08779 10.7918C7.7373 10.5372 7.2627 10.5372 6.91221 10.7918L5.58151 11.7586C4.7978 12.328 3.74331 11.5619 4.04267 10.6406L4.55095 9.07624C4.68483 8.66422 4.53817 8.21285 4.18768 7.9582L2.85698 6.99139C2.07326 6.42199 2.47604 5.18237 3.44476 5.18237H5.0896C5.52283 5.18237 5.90678 4.90341 6.04066 4.49139L6.54894 2.92705Z" fill="#E03F3F"/>
<path d="M21.5489 2.92705C21.8483 2.00574 23.1517 2.00574 23.4511 2.92705L23.9593 4.49139C24.0932 4.90341 24.4772 5.18237 24.9104 5.18237H26.5552C27.524 5.18237 27.9267 6.42199 27.143 6.99139L25.8123 7.9582C25.4618 8.21285 25.3152 8.66422 25.449 9.07624L25.9573 10.6406C26.2567 11.5619 25.2022 12.328 24.4185 11.7586L23.0878 10.7918C22.7373 10.5372 22.2627 10.5372 21.9122 10.7918L20.5815 11.7586C19.7978 12.328 18.7433 11.5619 19.0427 10.6406L19.551 9.07624C19.6848 8.66422 19.5382 8.21285 19.1877 7.9582L17.857 6.99139C17.0733 6.42199 17.476 5.18237 18.4448 5.18237H20.0896C20.5228 5.18237 20.9068 4.90341 21.0407 4.49139L21.5489 2.92705Z" fill="#E03F3F"/>
<path d="M36.5489 2.92705C36.8483 2.00574 38.1517 2.00574 38.4511 2.92705L38.9593 4.49139C39.0932 4.90341 39.4772 5.18237 39.9104 5.18237H41.5552C42.524 5.18237 42.9267 6.42199 42.143 6.99139L40.8123 7.9582C40.4618 8.21285 40.3152 8.66422 40.449 9.07624L40.9573 10.6406C41.2567 11.5619 40.2022 12.328 39.4185 11.7586L38.0878 10.7918C37.7373 10.5372 37.2627 10.5372 36.9122 10.7918L35.5815 11.7586C34.7978 12.328 33.7433 11.5619 34.0427 10.6406L34.551 9.07624C34.6848 8.66422 34.5382 8.21285 34.1877 7.9582L32.857 6.99139C32.0733 6.42199 32.476 5.18237 33.4448 5.18237H35.0896C35.5228 5.18237 35.9068 4.90341 36.0407 4.49139L36.5489 2.92705Z" fill="#E03F3F"/>
<path d="M51.5489 2.92705C51.8483 2.00574 53.1517 2.00574 53.4511 2.92705L53.9593 4.49139C54.0932 4.90341 54.4772 5.18237 54.9104 5.18237H56.5552C57.524 5.18237 57.9267 6.42199 57.143 6.99139L55.8123 7.9582C55.4618 8.21285 55.3152 8.66422 55.449 9.07624L55.9573 10.6406C56.2567 11.5619 55.2022 12.328 54.4185 11.7586L53.0878 10.7918C52.7373 10.5372 52.2627 10.5372 51.9122 10.7918L50.5815 11.7586C49.7978 12.328 48.7433 11.5619 49.0427 10.6406L49.551 9.07624C49.6848 8.66422 49.5382 8.21285 49.1877 7.9582L47.857 6.99139C47.0733 6.42199 47.476 5.18237 48.4448 5.18237H50.0896C50.5228 5.18237 50.9068 4.90341 51.0407 4.49139L51.5489 2.92705Z" fill="#E03F3F"/>
<path d="M67.0245 3.08156C67.1741 2.6209 67.8259 2.62091 67.9755 3.08156L68.4838 4.6459C68.6846 5.26393 69.2606 5.68237 69.9104 5.68237H71.5552C72.0396 5.68237 72.241 6.30218 71.8491 6.58688L70.5184 7.5537C69.9927 7.93566 69.7727 8.61271 69.9735 9.23075L70.4818 10.7951C70.6315 11.2557 70.1042 11.6388 69.7124 11.3541L68.3817 10.3873C67.8559 10.0053 67.1441 10.0053 66.6183 10.3873L65.2876 11.3541C64.8958 11.6388 64.3685 11.2557 64.5182 10.7951L65.0265 9.23075C65.2273 8.61271 65.0073 7.93566 64.4816 7.5537L63.1509 6.58688C62.759 6.30218 62.9604 5.68237 63.4448 5.68237H65.0896C65.7394 5.68237 66.3154 5.26393 66.5162 4.6459L67.0245 3.08156Z" stroke="#E03F3F"/>
</svg>
